<svg width="24" height="24" viewBox="0 0 24 24" fill="none" xmlns="http://www.w3.org/2000/svg">
<g clip-path="url(#clip0_4210_18740)">
<path d="M23.031 1.07222C21.637 -0.321797 19.5539 -0.0669381 18.1084 0.245953C16.2252 0.653624 13.9154 1.54251 11.2408 2.57175C10.9659 2.67755 10.6867 2.78498 10.4033 2.89373C10.3922 2.898 10.3811 2.9025 10.3702 2.90714C10.2695 2.95026 7.88882 3.97233 6.50859 4.82353C2.42732 7.34044 1.55821 10.6997 1.54776 13.0745C1.5426 14.2527 1.74477 15.4561 2.14832 16.66C0.768976 19.0086 0.000976562 21.2489 0.000976562 23.0625C0.000976562 23.5803 0.420649 24 0.93843 24C1.45621 24 1.87588 23.5803 1.87588 23.0625C1.87588 21.9372 2.31754 20.2575 3.41202 18.2303C3.83741 18.4624 4.44299 18.7359 5.21015 18.9387C5.80884 19.0968 6.55973 19.2225 7.43479 19.2225C8.61435 19.2225 10.0194 18.994 11.5792 18.3089C12.2669 18.0068 12.9397 17.6491 13.5789 17.2456C14.0167 16.9692 14.1475 16.3903 13.8711 15.9524C13.5947 15.5145 13.0159 15.3839 12.578 15.6601C12.0175 16.014 11.4278 16.3275 10.8252 16.5922C9.07495 17.361 7.37591 17.5481 5.77518 17.148C5.1779 16.9988 4.70474 16.791 4.37807 16.6189C4.99865 15.6752 5.7501 14.677 6.64992 13.6405C9.27384 10.6181 14.0377 6.29358 21.9254 2.66784C22.2006 3.10087 22.2752 3.78248 21.5886 5.12259C21.2352 5.81236 20.7381 6.56484 20.1422 7.37911C20.1236 7.38647 20.1048 7.39331 20.0864 7.40194C19.0091 7.90697 16.8846 8.05064 16.1564 8.06339C15.6387 8.07201 15.226 8.49867 15.2347 9.01631C15.2432 9.52875 15.6613 9.93816 16.1717 9.93816C16.177 9.93816 16.1823 9.93811 16.1876 9.93801C16.3556 9.9352 17.2485 9.91397 18.2908 9.77147C18.1419 9.95822 17.9906 10.1474 17.8373 10.339C17.4367 10.8401 17.0241 11.3567 16.6074 11.8863C15.2289 12.1966 13.8531 12.3229 12.3062 12.2821C12.2977 12.2819 12.2894 12.2818 12.2811 12.2818C11.7748 12.2818 11.3578 12.6855 11.3444 13.1946C11.3308 13.7122 11.7393 14.1428 12.2569 14.1564C12.4625 14.1618 12.6653 14.1646 12.8658 14.1646C14.4552 14.1646 15.8991 13.9936 17.3643 13.6347C17.3735 13.6324 17.3821 13.6291 17.3911 13.6267C17.409 13.6217 17.4269 13.6167 17.4446 13.6106C17.4573 13.6063 17.4695 13.6014 17.4818 13.5966C17.498 13.5903 17.514 13.5839 17.5299 13.5767C17.5429 13.5708 17.5554 13.5644 17.568 13.5579C17.5825 13.5505 17.597 13.543 17.6111 13.5348C17.624 13.5273 17.6365 13.5193 17.6489 13.5113C17.662 13.5029 17.675 13.4944 17.6877 13.4853C17.7004 13.4761 17.7127 13.4665 17.7248 13.4567C17.7364 13.4475 17.7479 13.4383 17.7591 13.4285C17.7717 13.4174 17.7836 13.4058 17.7956 13.3942C17.8055 13.3845 17.8154 13.3749 17.825 13.3647C17.8373 13.3515 17.8488 13.3377 17.8604 13.3239C17.8666 13.3163 17.8734 13.3095 17.8795 13.3018C18.3597 12.6881 18.8386 12.0891 19.3018 11.5099C20.9765 9.41517 22.4229 7.60608 23.2573 5.97745C23.7441 5.02734 23.9867 4.20019 23.9992 3.44878C24.0148 2.52961 23.6889 1.73006 23.031 1.07222ZM5.23424 12.4113C4.62285 13.1156 4.0574 13.8271 3.54205 14.5374C3.46059 14.0472 3.4206 13.5615 3.42271 13.0827C3.43391 10.5217 4.6117 8.40905 6.92399 6.7935C6.91982 6.80391 6.9157 6.81398 6.91152 6.82448C6.7192 7.30519 6.95306 7.85077 7.43376 8.04305C7.54799 8.08875 7.6657 8.11036 7.78166 8.11036C8.15371 8.11036 8.5057 7.88733 8.65232 7.52086C9.07406 6.46664 9.36145 5.96897 9.79368 5.22356C10.4593 4.91184 10.9949 4.67962 11.0924 4.63762C11.3705 4.53094 11.6444 4.42551 11.9142 4.32169C14.7542 3.2287 17.2354 2.27405 19.0526 1.97489C12.0927 5.5148 7.73793 9.5273 5.23424 12.4113Z" fill="black"/>
</g>
<defs>
<clipPath id="clip0_4210_18740">
<rect width="24" height="24" fill="white"/>
</clipPath>
</defs>
</svg>
