<svg width="217" height="250" viewBox="0 0 217 250" fill="none" xmlns="http://www.w3.org/2000/svg">
<g clip-path="url(#clip0_4539_35015)">
<path d="M42.9212 240.114C38.5056 239.821 37.1208 244.015 41.3069 246.522C42.5928 247.29 45.6591 249.185 53.2004 249.802C61.0306 250.439 65.3512 249.359 66.3126 249.07C70.4631 247.82 70.3127 242.958 66.2731 242.385C60.8881 241.621 60.9316 241.625 42.9212 240.114Z" fill="#D60040"/>
<path d="M0 144.559L1.18698 181L8.5067 197.954C10.4573 197.068 11.945 195.403 12.6097 193.369C13.7096 189.952 13.5158 179.366 16.7127 175.268C19.9096 171.17 38.5017 155.813 48.7612 153.942C59.0207 152.071 64.6865 149.733 71.116 151.672C77.5455 153.61 90.0642 166.098 91.3976 169.742C92.7309 173.385 101.289 147.918 101.289 147.918L85.7673 127.542L38.3078 122.035L0 144.559Z" fill="#0078C1"/>
<path d="M67.7134 234.273C62.3206 233.015 62.3601 233.023 44.2349 229.866C39.7837 229.166 38.7629 235.305 43.3368 236.342C46.7513 237.113 64.2553 240.527 66.202 240.729" fill="#9E3B3A"/>
<path d="M67.7134 223.896C62.3206 222.638 62.3601 222.646 44.2349 219.489C39.7837 218.789 38.7629 224.928 43.3368 225.965C46.7513 226.756 64.2553 230.15 66.202 230.352" fill="#9E3B3A"/>
<path d="M43.3486 234.24C38.8974 233.54 37.0813 237.591 41.0894 240.47C42.3199 241.357 45.2398 243.524 52.8365 244.822C60.726 246.179 65.2128 245.498 66.2178 245.296C70.5502 244.434 70.8707 239.58 66.8271 238.635C61.4382 237.389 61.4777 237.397 43.3486 234.24Z" fill="#AD1A25"/>
<path d="M43.3486 229.039C38.8974 228.339 37.0813 232.389 41.0894 235.269C42.3199 236.155 45.2398 238.327 52.8365 239.621C60.726 240.977 65.2128 240.297 66.2178 240.095C70.5502 239.233 70.8707 234.379 66.8271 233.434C61.4382 232.204 61.4777 232.204 43.3486 229.039Z" fill="#D60040"/>
<path d="M43.3486 223.291C38.8974 222.591 37.0813 226.641 41.0894 229.521C42.3199 230.407 45.2398 232.579 52.8365 233.873C60.726 235.229 65.2128 234.549 66.2178 234.347C70.5502 233.485 70.8707 228.631 66.8271 227.686C61.4382 226.44 61.4777 226.448 43.3486 223.291Z" fill="#AD1A25"/>
<path d="M43.3486 218.105C38.8974 217.405 37.0813 221.456 41.0894 224.336C42.3199 225.222 45.2398 227.393 52.8365 228.687C60.726 230.044 65.2128 229.363 66.2178 229.166C70.5502 228.299 70.8707 223.446 66.8271 222.5C61.4382 221.254 61.4777 221.266 43.3486 218.105Z" fill="#D60040"/>
<path d="M43.5228 212.029C39.0755 211.329 37.2595 215.38 41.2635 218.263C42.4941 219.146 45.414 221.317 53.0147 222.615C60.9002 223.972 65.387 223.291 66.3959 223.093C70.7244 222.227 71.0449 217.373 67.0013 216.428C61.6203 215.162 61.6598 215.194 43.5228 212.029Z" fill="#AD1A25"/>
<path d="M43.5228 206.826C39.0755 206.126 37.2595 210.177 41.2635 213.06C42.4941 213.942 45.414 216.114 53.0147 217.412C60.9002 218.768 65.387 218.088 66.3959 217.89C70.7244 217.028 71.0449 212.17 67.0013 211.229C61.6203 209.975 61.6598 209.987 43.5228 206.826Z" fill="#D60040"/>
<path d="M43.5228 202.183C39.0755 201.483 37.2595 205.534 41.2635 208.414C42.4941 209.296 45.414 211.468 53.0147 212.765C60.9002 214.122 65.387 213.446 66.3959 213.244C70.7244 212.381 71.0449 207.524 67.0013 206.582C61.6203 205.332 61.6598 205.34 43.5228 202.183Z" fill="#AD1A25"/>
<path d="M43.5228 196.996C39.0755 196.296 37.2595 200.346 41.2635 203.226C42.4941 204.108 45.414 206.28 53.0147 207.578C60.9002 208.934 65.387 208.258 66.3959 208.056C70.7244 207.194 71.0449 202.34 67.0013 201.395C61.6559 200.161 43.5228 196.996 43.5228 196.996Z" fill="#D60040"/>
<path d="M23.5893 203.413C23.5893 202.06 22.4972 197.25 23.0156 183.436C23.158 179.584 23.6091 161.312 23.6091 161.312C35.6015 158.171 47.9343 156.494 60.3303 156.312C80.509 156.09 90.4678 155.742 90.4678 155.742L89.3718 191.063C89.3718 191.063 89.0473 203.366 60.0217 205.035C35.6688 206.427 23.5893 203.413 23.5893 203.413Z" fill="#AD1A25"/>
<path d="M62.6292 144.424C61.3116 136.184 46.3359 133.649 41.0419 135.263C28.1276 139.207 21.0136 151.109 24.531 177.099C24.6735 178.155 26.4698 177.89 27.1068 177.368C45.1964 162.767 62.6292 144.424 62.6292 144.424Z" fill="#E73440"/>
<path d="M62.6291 144.424C71.0527 144.566 99.1684 145.524 88.1769 163.981C80.1925 177.387 51.6693 182.573 25.4529 177.826L62.6291 144.424Z" fill="#E73440"/>
<path d="M216.676 7.44922L217 24.9653C217 24.9653 111.652 131.826 109.946 132.605C108.241 133.385 105.776 127.807 105.776 127.807L119.122 146.399L119.96 171.874L105.744 197.527L67.2268 209.177L66.9617 188.394L97.38 167.396L100.545 134.429L93.0753 109.947L216.676 7.44922Z" fill="#0078C1"/>
<path d="M69.0902 182.535C66.7558 184.635 66.9616 188.393 66.9616 188.393L103.98 174.548L119.122 146.399L104.217 118.028L216.676 7.44869L190.973 0L74.859 109.179L29.7101 118.633L0 144.559L8.43944 172.159C10.2318 171.874 11.7511 170.691 12.4593 169.022C13.3535 167.044 15.498 148.507 15.498 148.507L44.8362 128.728L72.7778 128.894L93.2414 142.965L92.8457 167.546C92.8457 167.546 72.7145 179.283 69.0902 182.535Z" fill="#5A9DD4"/>
</g>
<defs>
<clipPath id="clip0_4539_35015">
<rect width="217" height="250" fill="white"/>
</clipPath>
</defs>
</svg>
