<svg width="232" height="250" viewBox="0 0 232 250" fill="none" xmlns="http://www.w3.org/2000/svg">
<g clip-path="url(#clip0_4395_24149)">
<path d="M134.891 3.93877C120.319 -6.60572 106.48 6.45738 101.669 14.6812L102.63 19.3968C101.867 16.4378 101.417 14.696 101.417 14.696C93.7749 9.00567 76.7732 2.19703 67.4878 17.6006C54.5151 39.1151 87.9591 64.7218 113.276 72.9159C113.692 73.0495 114.103 72.6784 114.434 72.1341C137.841 52.1931 154.986 18.4863 134.891 3.94372V3.93877Z" fill="#E83340"/>
<path d="M169.868 196.08C169.868 196.08 165.002 197.262 162.265 198.613C159.528 199.964 158.078 200.81 160.008 200.978C161.939 201.147 171.605 200.81 172.085 200.3C172.57 199.796 173.05 197.257 172.085 195.233C171.12 193.205 169.868 196.08 169.868 196.08Z" fill="#211A12"/>
<path d="M227.219 205.996C228.501 209.014 227.06 209.207 225.769 210.558C224.482 211.909 221.423 214.952 222.066 215.798C222.71 216.644 224.086 216.644 224.848 215.798C225.61 214.952 229.476 212.251 230.921 210.222C232.371 208.193 230.575 206.793 230.575 206.793L227.214 206.001L227.219 205.996Z" fill="#211A12"/>
<path d="M179.337 111.487C178.476 114.184 161.301 155.525 160.172 158.905C159.044 162.284 157.915 162.131 160.172 167.351C161.33 170.038 165.968 184.417 167.097 188.98C168.225 193.542 168.384 195.229 168.225 195.739C168.067 196.248 168.136 196.753 169.873 197.599C171.611 198.445 172.739 199.46 172.739 198.614C172.739 197.768 172.309 186.565 171.452 178.861C170.576 170.983 168.23 164.313 169.517 161.102C170.804 157.89 182.193 137.855 183.905 135.208C185.519 132.719 186.489 131.279 187.028 130.686C187.514 130.156 188.38 130.31 189.652 130.013C190.859 129.731 191.894 129.745 192.78 130.671C195.814 133.847 197.982 142.863 198.734 145.218C199.699 148.261 207.831 176.505 207.831 176.505C207.831 176.505 214.454 184.417 218.483 190.499C223.432 197.98 225.778 203.507 226.585 205.873C227.387 208.238 227.823 208.238 227.823 208.238L232.01 209.42C232.01 209.42 226.857 193.245 224.6 186.946C221.7 178.851 216.82 170.385 214.563 166.332C212.543 162.7 208.574 137.672 206.079 129.33C203.505 120.715 199.788 111.101 197.695 109.221C195.601 107.34 179.347 111.477 179.347 111.477" fill="#002E66"/>
<path d="M38.2149 213.25C38.0071 214.522 37.527 215.848 40.5264 215.477C43.5258 215.101 49.9701 214.769 51.4203 214.398C52.8705 214.022 53.8357 214.022 52.5488 213.255C51.2619 212.483 38.2149 213.255 38.2149 213.255" fill="#211A12"/>
<path d="M1.57849 217.724C0.687573 218.956 0.375751 220.193 1.57849 220.811C2.78123 221.43 8.74048 222.662 11.9626 222.815C15.1848 222.969 16.9567 223.741 16.7934 222.197C16.635 220.653 15.0215 220.985 12.9278 220.43C10.8341 219.876 3.58801 217.719 3.58801 217.719H1.57849V217.724Z" fill="#211A12"/>
<path d="M39.7208 133.12C39.7208 134.921 38.7705 155.223 38.5923 159.489C38.3201 166.015 39.5278 171.458 37.3698 174.719C30.97 184.403 17.8141 202.478 16.0422 205.838C13.1814 211.261 10.083 219.267 10.083 219.267C10.083 219.267 2.83683 219.594 1.06489 218.941C-0.707049 218.288 0.263062 216.323 0.263062 216.323C0.263062 216.323 2.50521 206.659 3.31198 203.384C4.11876 200.108 7.5092 193.883 9.1178 192.245C10.7313 190.608 20.5314 182.339 23.4665 179.306C27.0054 175.659 29.4307 175.234 29.5693 170.954C29.8168 163.249 29.0249 157.851 28.0597 151.463C27.0945 145.075 24.3574 134.456 24.3574 134.456L39.7159 133.12H39.7208Z" fill="#002E66"/>
<path d="M45.1951 131.562C46.284 133.59 49.6496 148.692 51.2582 156.718C52.8668 164.744 55.6633 173.195 55.1783 176.797C54.6932 180.4 50.8375 193.621 49.3873 200.336C47.9371 207.05 47.7688 212.662 47.1254 212.83L46.4819 212.993C46.4819 212.993 41.4878 214.468 39.2358 214.304C36.9838 214.141 37.3698 213.156 37.3698 213.156C37.3698 213.156 36.469 206.442 36.9095 202.186C37.35 197.926 43.2598 189.084 44.2249 185.318C45.1901 181.553 46.081 175.986 45.596 172.309C45.1109 168.633 33.6973 141.29 33.6973 141.29L34.5585 131.566H45.1852L45.1951 131.562Z" fill="#002E66"/>
<path d="M16.4714 100.981C15.5062 101.402 11.6406 102.723 9.22524 103.604C6.80987 104.485 2.1375 106.583 1.65739 109.24C1.17234 111.902 3.10761 115.4 5.20126 118.34C7.29492 121.279 11.2645 125.584 13.7788 129.319C15.6498 132.1 18.9313 137.291 20.6042 139.636C20.7296 139.814 21.7261 139.74 23.5938 139.414C31.0626 138.117 37.4129 137.232 40.9568 135.975C44.5006 134.713 46.2726 134.856 46.2726 134.856C46.2726 134.856 43.9463 124.921 42.1298 119.181C40.3133 113.441 39.0264 111.061 39.0264 111.061C39.0264 111.061 43.6939 111.758 44.5006 111.902C45.3074 112.041 53.6821 105.138 53.6821 105.138C53.6821 105.138 46.1142 103.223 41.4418 100.981C36.7695 98.7399 33.874 95.8947 30.4885 96.4786C27.103 97.0625 16.4763 100.981 16.4763 100.981" fill="#00ABAB"/>
<path d="M108.662 108.33C152.441 107.662 178.065 116.341 184.242 126.886C188.469 134.105 165.938 167.213 111.602 168.549C59.1518 169.836 39.3388 145.857 39.3438 136.233C39.3438 127.148 71.5356 108.899 108.662 108.33Z" fill="#E83842"/>
<path d="M108.662 108.33C152.441 107.662 178.065 116.341 184.242 126.886C188.469 134.105 165.938 167.213 111.602 168.549C59.1518 169.836 39.3388 145.857 39.3438 136.233C39.3438 127.148 71.5356 108.899 108.662 108.33Z" stroke="#E83842" stroke-width="4.37" stroke-miterlimit="10"/>
<path d="M108.554 107.909C152.333 107.241 181.55 117.682 184.133 126.465C186.356 134.026 159.653 156.876 114.558 157.816C80.7275 158.519 39.2255 147.311 39.2305 135.812C39.2305 126.727 71.4223 108.478 108.549 107.909" fill="#AD1A26"/>
<path d="M108.554 107.909C152.333 107.241 181.55 117.682 184.133 126.465C186.356 134.026 159.653 156.876 114.558 157.816C80.7275 158.519 39.2255 147.311 39.2305 135.812C39.2305 126.727 71.4223 108.478 108.549 107.909H108.554Z" stroke="#AD1A26" stroke-width="4.37" stroke-miterlimit="10"/>
<path d="M161.282 151.809C151.645 158.86 146.186 160.488 146.186 160.488M53.0599 153.174C57.3462 157.088 60.4248 158.335 60.4248 158.335M51.8027 150.022C51.8027 150.022 60.4298 156.707 74.5855 157.059M83.0294 161.834L85.1676 165.683M84.4499 159.577C90.3795 164.1 99.1699 166.47 99.6797 166.648M173.75 143.892C172.087 145.995 170.706 147.444 167.662 148.102" stroke="#AD1A26" stroke-width="0.87" stroke-miterlimit="10" stroke-linecap="round"/>
<path d="M102.59 104.945C103.303 107.32 105.362 112.437 107.628 116.034M102.615 91.907C102.926 94.7917 106.891 106.445 108.391 109.735M108.307 75.2861C107.807 76.9784 109.752 93.3864 111.959 101.694" stroke="#DB5252" stroke-width="1.75" stroke-miterlimit="10" stroke-linecap="round"/>
<path d="M143.705 105.495C140.844 106.954 138.701 106.707 137.84 107.959C136.979 109.211 137.092 109.691 138.162 109.211C139.236 108.726 140.201 108.404 141.008 108.726C141.809 109.047 143.705 109.394 143.705 109.394C143.705 109.394 145.517 107.276 146.64 106.311C147.769 105.346 143.705 105.495 143.705 105.495Z" fill="#F07808"/>
<path d="M176.595 135.129C176.595 135.129 176.412 136.243 175.056 137.697C173.699 139.157 172.408 140.602 172.249 141.73L172.086 142.858C172.086 142.858 173.195 142.373 174.412 141.409L175.63 140.444C175.63 140.444 175.788 142.858 174.986 144.145C174.18 145.431 172.893 145.11 174.18 145.431C175.466 145.753 176.753 145.753 177.882 143.818C179.01 141.889 180.075 138.989 180.911 136.089C181.747 133.19 176.595 135.124 176.595 135.124" fill="#F07808"/>
<path d="M125.787 236.883C125.787 236.883 126.792 234.81 127.916 233.523C129.044 232.237 130.489 231.796 130.173 230.485C129.851 229.174 130.173 228.53 128.722 229.337C127.272 230.139 125.02 231.856 123.728 232.929C122.441 234.003 125.787 236.878 125.787 236.878" fill="#002E66"/>
<path d="M118.095 243.988C116.081 244.601 114.715 244.473 113.101 243.988C111.493 243.503 109.79 242.058 108.711 242.86C107.627 243.661 107.701 243.844 108.711 244.398C109.721 244.953 114.873 248.332 117.13 249.139C119.387 249.945 121.516 250.752 123.698 248.718C125.881 246.684 118.095 243.988 118.095 243.988Z" fill="#002E66"/>
<path d="M49.6882 104.629C49.6882 104.629 64.2052 110.636 68.6103 111.18C72.0997 111.611 75.8564 111.7 74.1686 112.328C72.5353 112.932 71.8522 112.887 70.0358 113.451C68.8033 113.832 73.0005 114.664 72.0354 115.629C71.0702 116.594 66.8235 114.001 63.6607 112.873C60.498 111.744 42.0807 110.097 37.7301 110.097C33.3794 110.097 49.6882 104.634 49.6882 104.634" fill="#FACCBA"/>
<path d="M36.9931 122.105C40.5369 120.844 43.9422 124.822 42.1257 119.082C40.3093 113.342 39.0224 110.962 39.0224 110.962C39.0224 110.962 43.6947 111.66 44.4966 111.803C45.2984 111.942 53.678 105.039 53.678 105.039C53.678 105.039 46.1101 103.124 41.4378 100.883C36.7654 98.6461 33.8699 95.796 30.4844 96.3799C27.1039 96.9638 33.4541 123.357 36.9931 122.1" fill="#00ABAB"/>
<path d="M26.5292 125.852C27.1578 126.346 35.9531 136.97 38.6259 139.929C41.2937 142.888 42.6053 143.467 44.0654 143.922C45.5256 144.382 47.6539 144.269 49.1536 146.114C50.6236 147.925 48.9308 147.015 48.9308 147.015C48.9308 147.015 45.7483 146.188 45.4216 146.56C45.0999 146.936 48.0795 149.395 49.406 149.835C50.7325 150.281 52.0243 152.097 51.0047 152.522C49.9851 152.948 49.5545 153.17 46.1146 151.913C42.6746 150.657 38.5071 146.406 36.364 144.758C34.2208 143.111 18.4961 130.043 18.4961 130.043L26.5292 125.857V125.852Z" fill="#FACCBA"/>
<path d="M125.866 107.735C125.708 110.516 125.505 113.05 123.733 114.985C121.961 116.914 121.357 117.117 120.872 117.28C120.387 117.439 124.416 118.409 128.118 118.567C131.82 118.725 132.627 118.725 132.627 117.76C132.627 116.796 131.014 115.687 130.425 111.902C130.098 109.819 129.568 106.81 130.533 104.88C131.499 102.951 133.35 102.584 133.35 100.011C133.35 97.4384 131.82 96.1865 130.207 96.1865C128.593 96.1865 126.544 97.1959 125.257 98.9228C123.97 100.65 123.124 101.981 123.446 103.267C123.767 104.554 124.733 104.554 125.218 105.36C125.703 106.162 125.861 107.731 125.861 107.731" fill="#F29C6B"/>
<path d="M84.4336 152.215C81.6965 154.308 81.5332 153.887 80.0879 154.179C78.6377 154.471 77.1875 154.15 77.1875 155.115C77.1875 156.079 78.9 155.599 78.7367 156.401C78.5783 157.208 77.9002 157.287 76.0293 158.262C74.4157 159.103 73.4357 159.939 74.8414 160.696C76.6183 161.656 79.3653 162.73 81.7064 160.953C83.6664 159.469 83.8991 158.286 84.9484 156.648C86.0967 154.862 86.849 154.174 86.849 154.174L84.4336 152.21V152.215Z" fill="#F29C6B"/>
<path d="M162.163 144.268C163.128 145.554 165.385 145.876 166.028 146.524C166.672 147.167 165.063 147.652 165.063 147.652C165.063 147.652 168.023 148.508 168.186 149.473C168.345 150.438 166.454 152.323 164.202 152.803C161.95 153.288 162.009 152.482 162.168 151.353C162.326 150.225 162.663 149.676 161.712 149.043C160.767 148.409 159.426 147.33 159.426 147.33L162.163 144.273V144.268Z" fill="#F29C6B"/>
<path d="M111.33 120.176C114.874 119.211 116.547 118.414 120.007 117.385C123.472 116.356 127.436 116.524 130.173 116.845C132.91 117.167 136.776 119.607 139.676 120.537C142.577 121.467 143.22 122.432 144.349 123.718C145.477 125.005 154.174 136.539 157.391 139.627C160.613 142.714 163.028 145.134 163.028 145.134C163.028 145.134 161.9 146.396 161.098 147.291L160.291 148.192C160.291 148.192 149.021 141.428 145.151 138.37C141.285 135.312 139.355 133.704 139.355 133.704C139.355 133.704 138.068 136.118 135.652 138.37C133.237 140.626 132.272 141.269 132.109 142.234C131.95 143.199 131.98 144.699 131.98 144.699H113.429C113.429 144.699 113.429 144.268 112.686 141.106C112.053 138.405 110.207 139.013 109.885 137.405C109.563 135.797 109.885 136.559 109.885 136.559C109.885 136.559 101.025 143.843 96.8381 147.227C92.6507 150.607 86.8548 154.184 86.8548 154.184L84.4395 152.22C84.4395 152.22 91.2055 145.347 93.4575 143.071C95.7096 140.794 100.382 135.317 101.51 132.739C102.639 130.161 107.059 124.045 108.069 122.917C109.078 121.789 111.335 120.181 111.335 120.181" fill="#002E66"/>
<path d="M113.102 144.327H131.944C131.944 144.327 133.474 150.606 132.791 158.172C132.108 165.738 126.95 190.211 126.149 202.611C125.342 215.006 125.827 224.828 125.505 228.535C125.183 232.236 127.277 249.629 124.703 249.629C122.13 249.629 118.902 249.629 116.814 245.927C114.72 242.226 113.433 239.485 113.592 232.562C113.75 225.64 113.27 211.31 114.398 200.845C115.527 190.38 114.398 169.934 114.077 160.755C113.755 151.576 113.111 144.332 113.111 144.332" fill="#73A8D6"/>
<path d="M183.683 90.6893C179.818 89.7244 173.374 86.1815 171.928 86.6664C170.478 87.1514 165.004 91.0109 160.975 93.5889C156.951 96.1669 145.834 103.975 144.226 104.821C142.612 105.667 145.191 107.439 145.834 107.439C146.478 107.439 154.694 102.609 158.233 100.675C161.777 98.7449 169.186 95.8452 169.186 95.8452C169.186 95.8452 167.256 98.4183 167.736 101.481C168.221 104.539 171.28 105.667 173.854 107.439C176.432 109.21 177.076 110.749 177.883 113.04C178.684 115.331 184.485 116.697 184.485 116.697C186.737 116.454 185.772 116.697 185.772 116.697C185.772 116.697 180.456 128.691 178.526 131.912L176.596 135.134C176.596 135.134 177.403 136.098 179.496 136.098C181.59 136.098 182.233 135.292 182.233 135.292C182.233 135.292 188.193 125.222 191.895 119.631C195.597 114.04 204.457 102.931 202.848 99.5514C201.24 96.1718 197.532 96.6518 193.83 95.0436C190.128 93.4355 183.683 90.6992 183.683 90.6992" fill="#B2D6D4"/>
<path d="M191.627 116.712C191.627 116.712 194.527 116.548 196.136 115.826C197.745 115.103 198.551 113.654 199.358 112.204C200.165 110.754 198.873 109.304 197.586 107.053C196.299 104.797 191.627 116.712 191.627 116.712Z" fill="#B2D6D4"/>
<path d="M181.431 75.7907C178.857 76.9189 175.635 78.6904 175.635 80.9418C175.635 83.1932 176.6 83.6781 178.05 83.9997C179.5 84.3213 178.372 89.0815 178.535 90.6896C178.694 92.3027 181.332 93.9702 183.851 92.6243C185.702 91.6347 184.376 91.2438 183.49 88.4085C182.564 85.4446 181.708 84.5391 182.351 83.8958C182.995 83.2525 184.054 82.8864 185.806 81.6939C187.934 80.2441 186.999 77.5572 185.098 76.2707C183.203 74.9842 181.431 75.7858 181.431 75.7858" fill="#F07808"/>
<path d="M182.292 75.5732C182.158 75.593 180.94 81.2487 181.322 84.3314C181.708 87.4141 182.217 91.6497 188.246 93.8764C194.27 96.108 195.616 95.6825 195.616 95.6825C195.616 95.6825 190.483 94.4058 188.756 88.572C187.028 82.7431 187.711 80.9914 187.41 78.9379C187.127 76.9983 186.444 75.8008 184.267 75.5386C182.312 75.306 182.297 75.5683 182.297 75.5683" fill="#002E66"/>
<path d="M128.169 96.2114C127.827 96.3697 126.872 97.2307 126.733 98.438C126.595 99.6454 126.733 100.492 126.733 100.492C126.733 100.492 127.936 98.8042 128.293 100.13C128.649 101.456 127.481 102.421 127.1 102.787C126.719 103.149 127.372 105.445 128.733 105.9L130.094 106.355C130.094 106.355 129.975 105.87 131.307 104.633C132.633 103.396 133.841 101.343 133.965 100.135C134.084 98.9279 133.846 97.4088 132.297 96.632C130.753 95.86 130.654 95.5285 129.515 95.7166C128.738 95.8452 128.174 96.2163 128.174 96.2163" fill="#002E66"/>
<path d="M144.477 90.9716C146.081 93.7524 144.541 97.6466 141.037 99.6704C137.533 101.694 133.385 101.081 131.781 98.2998C130.178 95.5189 131.717 91.6247 135.221 89.6009C138.725 87.5771 142.868 88.1907 144.477 90.9716Z" fill="#002E66"/>
<path d="M23.1299 86.2363C23.8476 86.5827 26.0254 86.1077 26.9856 86.8103C28.3913 87.8346 27.7033 89.5664 26.1788 90.0316C24.1396 90.6501 22.729 92.1543 22.1103 91.1647C21.4916 90.1751 23.1299 86.2413 23.1299 86.2413" fill="#AD1A26"/>
<path d="M17.5222 92.3128C17.2797 94.2426 16.6461 98.0032 15.5721 100.146C14.404 102.481 12.6073 102.941 16.3096 103.906C18.527 104.485 20.6701 104.084 21.6254 103.421C22.6549 102.709 24.0655 101.521 24.2833 100.235C24.5357 98.7306 22.8826 100.383 21.9174 98.696C20.9522 97.0037 21.3829 95.4549 21.3829 95.4549C21.3829 95.4549 23.5062 96.9394 24.8228 94.1981C25.3672 93.0551 26.1394 88.7205 23.8576 87.9981C21.5759 87.2707 19.21 87.9684 18.2399 89.1757C17.2698 90.3831 17.5123 92.3178 17.5123 92.3178" fill="#FACCBA"/>
<path d="M24.5246 86.6076C21.9657 85.4003 20.268 85.6576 18.4119 86.7462C17.1399 87.4933 17.6992 88.7947 17.3082 90.3286C16.9171 91.8626 16.8676 93.0402 17.3378 93.0847C18.5703 93.2035 18.0852 93.2381 18.8673 93.0699C19.0504 93.0303 19.9859 92.6246 20.2185 91.8477C20.3125 91.536 20.1838 90.6602 20.2779 90.3286C20.3719 90.0021 20.7332 89.5171 21.3767 89.8833C21.7083 90.0713 21.6835 91.8329 21.6885 91.8774C21.6984 91.9813 22.2775 91.6894 22.3963 91.6003C22.5547 91.4766 22.4359 90.4029 22.6933 90.3286C23.9603 89.9575 25.7273 89.9328 25.8857 89.2945C26.1629 88.191 27.3953 87.9684 24.5196 86.6126" fill="#AD1A26"/>
<path d="M38.8684 153.655C38.8585 153.239 39.0912 148.133 39.0912 148.133M45.5454 184.962C45.8671 187.105 47.639 199.262 48.822 202.399M46.0354 172.305C47.1837 174.586 49.4852 188.629 49.1635 192.488M19.6592 186.62C20.8224 186.154 24.3118 185.076 25.9452 184.616M26.7965 189.43C25.5443 191.216 4.94425 205.868 2.63281 208.05M34.9335 101.007C35.6413 102.546 36.364 106.069 36.364 106.069M33.7061 102.387C36.2798 105.287 38.5715 110.037 39.0219 110.967M36.6213 120.824C37.4677 122.101 38.225 132.071 36.7748 136.619M15.3432 111.744C17.6002 114.782 22.5399 121.547 25.9452 124.446" stroke="#4A5E87" stroke-width="0.87" stroke-linecap="round" stroke-linejoin="round"/>
<path d="M18.5059 87.5527C18.7682 87.048 19.4117 86.6027 20.6887 86.6175C22.2379 86.6324 23.4357 87.9387 24.3612 87.8793M25.2818 87.1519C26.1282 87.9684 26.3064 88.6018 25.8115 88.8492C24.9403 89.2846 23.203 88.9778 20.3175 89.1609C18.8375 89.2549 17.9219 91.3133 17.9219 91.3133" stroke="#DB5252" stroke-width="0.87" stroke-linecap="round" stroke-linejoin="round"/>
<path d="M118.234 230.064C119.486 232.934 120.55 235.858 123.436 237.793C125.109 238.911 125.703 238.639 125.703 238.639M114.131 212.998C114.131 214.606 115.318 228.134 117.031 234.25C118.744 240.366 120.996 242.627 122.768 243.429M127.093 190.053C127.093 190.053 125.668 184.982 125.02 180.152C124.371 175.323 124.129 168.198 124.455 165.674M125.183 224.428C124.861 223.142 122.5 194.353 123.035 184.596C123.203 181.523 123.411 177.787 123.688 174.036C124.287 165.872 125.213 157.648 126.772 156.06L129.044 153.744M115.16 132.843C115.16 132.843 119.709 131.601 120.837 131.561M109.879 136.559C109.879 136.559 111.864 134.718 114.116 132.843C114.457 132.556 114.809 132.274 115.155 131.992C116.749 130.715 118.353 129.557 119.382 129.127M128.242 140.048C126.792 141.992 125.826 143.16 125.183 144.268M126.668 134.501C125.341 135.713 123.411 141.552 123.733 144.268" stroke="#3B8CC7" stroke-width="0.87" stroke-linecap="round" stroke-linejoin="round"/>
<path d="M113.062 144.204C113.444 144.268 114.221 144.323 131.975 144.263" stroke="#243D6B" stroke-width="0.87" stroke-linecap="round" stroke-linejoin="round"/>
<path d="M176.545 108.295C179.762 110.521 181.589 111.922 182.895 113.654C184.261 115.465 184.707 116.256 184.707 116.256M198.907 109.26C198.828 109.116 193.413 117.142 194.428 115.732M187.018 113.48C188.948 109.977 190.488 105.138 190.849 103.055" stroke="#54B2B0" stroke-width="0.87" stroke-linecap="round" stroke-linejoin="round"/>
<path d="M210.761 178.569C213.498 179.865 221.18 189.42 223.021 197.278M168.745 164.699C168.19 166.367 167.997 169.915 168.19 173.082M168.863 161.815C168.863 161.815 166.329 166.298 165.488 170.132C164.641 173.967 164.859 179.915 164.859 179.915M202.317 155.971C202.317 155.971 206.673 164.333 210.781 168.01C214.889 171.686 216.29 172.181 218.814 174.972M194.834 125.812C195.319 125.302 195.977 124.293 196.492 123.783M193.388 128.217C193.75 127.707 197.006 125.302 199.605 124.798" stroke="#3B8CC7" stroke-width="0.87" stroke-linecap="round" stroke-linejoin="round"/>
<path d="M175.061 104.5C175.595 104.985 178.377 108.152 179.763 109.042" stroke="#54B2B0" stroke-width="0.87" stroke-linecap="round" stroke-linejoin="round"/>
<path d="M183.36 78.0322C183.241 78.8784 182.385 84.4648 183.899 87.7058C185.414 90.9518 189.428 93.0548 191.284 93.3072" stroke="#4A5E87" stroke-width="0.87" stroke-linecap="round" stroke-linejoin="round"/>
</g>
<defs>
<clipPath id="clip0_4395_24149">
<rect width="232" height="250" fill="white"/>
</clipPath>
</defs>
</svg>
