<svg width="279" height="250" viewBox="0 0 279 250" fill="none" xmlns="http://www.w3.org/2000/svg">
<g clip-path="url(#clip0_4395_24287)">
<path d="M175.896 183.27C175.561 182.265 175.181 181.125 174.782 179.893C172.979 175.575 170.561 172.777 167.56 171.569C160.934 168.903 152.36 174.062 146.099 177.828L145.41 178.243C145.302 178.843 145.191 179.443 145.072 180.046C144.826 181.305 144.573 182.561 144.32 183.812C141.907 195.743 139.626 207.013 147.395 214.148C149.694 216.26 151.893 217.112 153.923 216.681C157.793 215.861 160.055 210.771 160.079 210.72C160.303 210.21 160.895 209.972 161.409 210.2C161.921 210.424 162.154 211.019 161.929 211.532C161.821 211.781 159.216 217.63 154.34 218.664C153.852 218.767 153.361 218.817 152.864 218.817C152.416 218.817 151.967 218.765 151.516 218.677C147.609 222.16 146.999 225.584 146.368 229.202L146.202 230.146C146.112 230.635 145.687 230.976 145.209 230.976C145.149 230.976 145.088 230.971 145.027 230.96C144.478 230.86 144.114 230.333 144.214 229.783L144.378 228.853C144.998 225.299 145.65 221.636 149.338 217.953C148.24 217.424 147.134 216.657 146.03 215.639C137.419 207.732 139.808 195.918 142.34 183.41C142.591 182.164 142.844 180.914 143.087 179.66C145.803 165.669 145.856 154.904 137.29 147.854C131.533 143.116 116.425 143.049 104.172 155.324C97.8469 161.66 98.2877 167.412 98.6758 172.486C98.7734 173.774 98.8632 175.004 98.8474 176.196C100.851 176.746 102.862 177.939 104.776 180.097C105.146 180.514 105.109 181.154 104.692 181.524C104.275 181.895 103.636 181.858 103.266 181.44C101.482 179.43 99.6314 178.386 97.7492 178.002C97.6674 177.997 97.5908 177.981 97.5143 177.957C93.6919 177.296 89.7376 179.335 85.9232 181.636C85.7595 181.733 85.58 181.781 85.4031 181.781C85.06 181.781 84.7247 181.606 84.5373 181.289C84.2496 180.81 84.4027 180.189 84.8805 179.901C87.7419 178.174 92.1714 175.509 96.8332 175.85C96.8279 174.834 96.7461 173.761 96.6616 172.64C96.5112 170.685 96.3502 168.551 96.564 166.285C92.1477 169.072 81.0317 174.591 64.0872 176.712C63.8047 176.749 63.5276 176.775 63.2478 176.804C63.2504 176.915 63.2398 177.029 63.2029 177.14C60.3942 185.779 63.9156 191.94 68.1392 197.311C73.3844 203.98 81.1954 205.464 86.8233 205.532C94.146 205.638 100.722 203.34 104.003 201.04C110.988 196.142 115.272 193.136 117.645 183.981C114.435 182.476 112.727 179.832 111.18 174.409C111.027 173.872 111.339 173.311 111.874 173.158C112.408 173.007 112.97 173.316 113.123 173.853C114.952 180.268 116.811 181.802 120.285 182.81C124.778 184.111 126.903 182.833 128.531 181.252C128.933 180.863 129.571 180.871 129.959 181.276C130.347 181.678 130.337 182.318 129.936 182.706C128.581 184.021 126.702 185.364 123.624 185.364C122.494 185.364 121.206 185.184 119.72 184.751C119.659 184.735 119.604 184.714 119.546 184.695C116.972 194.41 112.228 197.737 105.159 202.692C101.508 205.252 94.9828 207.367 88.035 207.526C89.4155 212.18 91.9999 215.89 96.1152 219.137C100.671 222.734 106.136 224.474 113.213 224.558C111.959 214.954 117.872 207.624 123.777 201.381C124.16 200.973 124.801 200.958 125.205 201.341C125.609 201.727 125.628 202.367 125.245 202.772C118.268 210.149 111.869 218.323 116.79 229.939C121.541 241.157 135.925 248.997 138.314 249.994C141.574 248.817 163.27 238.306 174.056 221.129C181.857 208.708 179.22 194.127 176.952 186.541C176.704 185.71 176.327 184.576 175.886 183.264L175.896 183.27Z" fill="#EF3340"/>
<path d="M252.611 99.4434C252.58 99.4222 252.556 99.3958 252.527 99.372C251.701 99.5835 250.811 99.7316 249.845 99.7818C247.704 99.8955 245.782 99.9564 244.056 99.9564C239.444 99.9564 236.197 99.5333 233.713 98.6289C229.748 100.853 227.684 101.527 225.691 102.178L224.894 102.439C223.41 102.937 218.662 103.603 212.337 103.603C209.774 103.603 206.949 103.489 203.982 103.214C205.363 104.259 206.711 105.438 208.013 106.755C210.639 109.412 212.983 112.535 214.829 115.767L215.111 115.624C217.27 114.54 221.293 112.522 225.147 113.294C225.696 113.403 226.05 113.937 225.939 114.487C225.831 115.037 225.293 115.391 224.749 115.28C221.573 114.646 217.957 116.46 216.014 117.435L215.787 117.549C216.405 118.771 216.948 119.998 217.4 121.211C219.256 126.209 219.298 130.276 217.519 132.368C217.318 132.603 217.035 132.725 216.748 132.725C216.515 132.725 216.283 132.646 216.093 132.484C215.668 132.122 215.618 131.482 215.98 131.056C217.233 129.583 217.051 126.08 215.504 121.917C210.761 109.14 199.964 101.165 191.752 99.8929C173.189 97.0185 162.271 102.156 156.377 106.972C149.107 112.914 142.748 118.961 137.986 124.464C137.941 124.517 137.888 124.564 137.835 124.604C137.835 124.604 137.83 124.607 137.83 124.609C138.007 125.503 138.157 126.45 138.271 127.465C139.16 135.414 137.194 139.407 135.114 143.633C135.04 143.781 134.968 143.932 134.895 144.08C136.201 144.63 137.437 145.349 138.569 146.285C147.312 153.478 147.605 164.388 145.849 175.611C152.393 171.686 161.049 166.765 168.308 169.687C169.898 170.327 171.334 171.327 172.622 172.67C170.222 163.78 168.367 152.848 171.339 144.831C171.341 144.82 171.347 144.812 171.349 144.804C171.281 144.63 171.257 144.437 171.294 144.241C172.764 136.514 168.485 128.029 163.99 122.666C163.631 122.237 163.686 121.6 164.114 121.241C164.542 120.881 165.18 120.936 165.539 121.365C169.483 126.074 173.258 133.084 173.577 140.116C176.011 136.046 179.237 133.338 182.946 132.339C186.882 131.278 191.045 132.241 194.371 134.983C204.016 142.943 212.305 145.473 219.707 142.728C227.344 139.894 233.138 138.815 237.364 139.436C237.372 136.765 238.109 134.153 239.439 132.331C239.769 131.879 240.403 131.781 240.851 132.111C241.303 132.442 241.4 133.074 241.07 133.526C239.632 135.499 239.038 138.799 239.592 141.742C240.012 143.976 241.015 145.698 242.417 146.592C242.887 146.893 243.026 147.517 242.725 147.991C242.533 148.295 242.205 148.459 241.873 148.459C241.688 148.459 241.501 148.408 241.332 148.3C239.455 147.102 238.132 144.907 237.604 142.118C237.567 141.917 237.549 141.716 237.52 141.512C233.639 140.779 228.027 141.8 220.406 144.627C212.273 147.647 203.333 145.002 193.085 136.546C190.271 134.224 186.768 133.404 183.471 134.293C179.123 135.467 175.489 139.46 173.234 145.537C169.615 155.297 173.733 170.081 176.695 179.239C177.255 180.592 177.759 182.068 178.197 183.684C178.215 183.75 178.226 183.816 178.231 183.882C178.495 184.681 178.725 185.389 178.896 185.963C180.649 191.834 182.605 201.729 180.148 211.79C193.5 209.326 202.374 205.372 209.591 198.698C214.924 193.767 217.867 188.235 217.669 183.525C217.524 180.061 215.737 176.959 212.366 174.307C211.782 173.918 211.236 173.516 210.711 173.106C201.068 166.62 190.979 168.754 187.753 170.221C187.246 170.454 186.644 170.229 186.414 169.719C186.185 169.209 186.409 168.608 186.916 168.378C190.997 166.519 198.639 165.57 206.35 168.563C204.571 165.927 203.858 163.129 204.396 160.435C204.505 159.887 205.043 159.528 205.587 159.641C206.133 159.75 206.49 160.284 206.379 160.834C205.677 164.354 207.696 168.175 211.848 171.433C212.413 171.813 212.976 172.215 213.533 172.649C213.54 172.657 213.548 172.662 213.559 172.67C213.902 172.897 214.256 173.12 214.623 173.339C220.433 176.822 227.278 178.165 229.572 176.266C234.611 172.102 237.882 167.828 238.613 159.419C238.637 159.15 238.658 158.896 238.679 158.658L238.489 158.663L238.615 157.513C238.615 157.513 238.687 156.875 238.763 156.241C238.943 154.744 239.038 153.993 240.049 154.094C241.055 154.194 240.989 155.085 240.915 156.114C240.907 156.228 240.896 156.352 240.886 156.489C243.193 156.177 248.158 155.091 252.089 151.344C257.534 146.153 262.637 133.092 261.557 121.928C260.428 110.214 257.5 102.862 252.611 99.4486V99.4434Z" fill="#EF3340"/>
<path d="M97.0328 163.507C97.7798 160.469 99.4059 157.238 102.743 153.893C109.653 146.97 122.95 140.629 132.973 143.418C133.084 143.194 133.192 142.966 133.303 142.744C135.333 138.619 137.086 135.057 136.265 127.698C135.045 116.798 129.771 113.955 125.92 111.879C125.365 111.581 124.845 111.3 124.378 111.017C123.9 110.729 123.744 110.108 124.032 109.629C124.32 109.148 124.94 108.995 125.418 109.283C125.861 109.55 126.352 109.814 126.878 110.097C130.222 111.901 134.987 114.476 137.252 122.227C137.276 122.2 137.294 122.176 137.318 122.15C140.831 118.136 148.138 109.78 144.047 95.8575C141.845 88.374 139.139 82.9056 133.857 79.8805C133.672 79.8672 133.485 79.8117 133.327 79.6954C133.245 79.6345 133.179 79.5631 133.121 79.4838C130.362 78.085 126.938 77.297 122.583 77.1832C111.248 76.8897 104.48 80.5891 100.003 83.0351C98.7618 83.7121 97.6901 84.2991 96.7002 84.7116C96.3016 84.8782 95.8634 85.0739 95.3803 85.2908C90.1827 87.6072 80.5027 91.9201 64.0518 87.0096C61.6074 86.2797 59.3293 85.6398 57.3205 85.0713C56.4705 84.8306 55.6495 84.6006 54.8523 84.3732C47.3581 83.6381 36.2606 82.7496 28.3281 95.0325C28.1354 95.3313 27.8107 95.4952 27.4781 95.4952C27.2907 95.4952 27.1007 95.4423 26.9291 95.3313C26.4618 95.0272 26.3272 94.4005 26.6308 93.9324C32.7048 84.5265 40.632 82.2683 47.4188 82.0118C43.9026 80.6949 40.9012 79.1215 38.0266 76.6967C25.8468 76.0224 16.964 78.7936 11.6265 84.9417C6.98844 90.2859 5.96158 97.1929 5.91406 102.048C5.9827 104.235 6.25459 105.864 7.26033 109.907C8.61716 115.365 20.9976 132.119 34.0669 133.637C49.5702 135.435 68.0537 133.113 84.0373 127.653C75.7565 127.137 65.245 123.38 61.9453 117.213C61.6813 116.721 61.8661 116.108 62.3571 115.843C62.8507 115.579 63.4632 115.764 63.7245 116.256C67.5891 123.48 84.0716 127.198 90.7396 125.091C90.7713 125.08 90.803 125.077 90.8373 125.069C92.5531 124.35 94.2426 123.604 95.866 122.806C95.9373 122.771 96.0086 122.748 96.0799 122.732C95.7552 121.436 95.5889 119.947 95.5994 118.287C95.639 111.663 98.6087 103.1 103.511 100.234C103.994 99.9509 104.612 100.115 104.894 100.599C105.174 101.083 105.013 101.701 104.53 101.984C100.309 104.454 97.6584 112.377 97.6215 118.3C97.6003 122.071 98.5612 124.821 100.261 125.842C100.739 126.13 100.895 126.751 100.607 127.23C100.417 127.547 100.082 127.722 99.7385 127.722C99.5617 127.722 99.3822 127.677 99.2185 127.576C98.1705 126.947 97.3364 125.945 96.7345 124.63C86.8249 129.488 75.0675 132.973 63.2177 134.798C63.186 134.814 63.1596 134.83 63.1253 134.843C54.2372 138.183 48.8944 142.527 47.2472 147.755C47.1099 148.186 46.714 148.464 46.2837 148.464C46.1834 148.464 46.0804 148.448 45.9801 148.416C45.4469 148.247 45.1539 147.678 45.3202 147.144C46.7298 142.67 50.436 138.825 56.3464 135.665C52.4765 136.046 48.6304 136.255 44.8741 136.255C41.1177 136.255 37.3798 136.054 33.832 135.644C31.4826 135.372 29.157 134.639 26.9 133.595C26.9264 133.769 26.9106 133.954 26.8367 134.129C23.4525 142.273 26.4882 152.351 27.6049 154.329C39.4731 175.325 56.8955 175.571 63.838 174.703C83.6704 172.22 95.3407 164.938 97.0328 163.507Z" fill="#EF3340"/>
<path d="M35.7671 74.5784C33.9061 72.6666 32.053 70.3264 30.0995 67.3753C26.1848 61.4705 18.8516 63.9509 15.8792 65.2889C14.9316 65.7173 14.5171 65.1752 14.3825 64.924C13.9338 64.0831 14.7415 63.578 15.0055 63.4141L15.5308 63.0835C15.7499 62.9434 16.0007 62.9011 16.2382 62.9408C25.7519 59.1752 30.2553 63.9509 31.7811 66.2567C38.9691 77.1011 44.4386 79.2827 55.2299 82.3713C55.288 82.3766 55.3514 82.3819 55.4094 82.3898C55.5757 82.4057 55.7262 82.4665 55.8582 82.5511C56.5102 82.7362 57.1754 82.9239 57.8644 83.117C59.8812 83.6855 62.1672 84.3307 64.6274 85.0632C80.3629 89.7595 89.5968 85.6449 94.5569 83.4343C95.0558 83.2122 95.5098 83.0086 95.9216 82.8393C96.2463 82.7045 96.5947 82.5379 96.9537 82.3554C96.959 82.3528 96.9643 82.3475 96.9696 82.3422C100.238 80.076 107.04 75.3612 109.236 64.7283C109.35 64.1809 109.883 63.8266 110.43 63.943C110.976 64.0567 111.327 64.5908 111.214 65.1382C109.97 71.154 107.296 75.4352 104.575 78.4788C108.928 76.6013 114.695 74.9513 122.631 75.1549C127.129 75.2713 130.708 76.1412 133.599 77.5374C138.226 70.0196 139.026 50.1263 132.984 35.17C126.928 20.1873 105.227 21.0943 105.008 21.1075C104.459 21.1472 103.975 20.7056 103.949 20.1476C103.92 19.5896 104.35 19.1137 104.907 19.0846C105.063 19.0766 107.597 18.9629 111.179 19.386C107.695 10.5037 99.2662 3.41165 89.7129 1.49716C63.6349 -3.72539 47.6987 6.01103 41.2393 11.3579C53.8097 11.9026 59.6357 20.1846 63.099 25.9969C63.2811 25.8514 63.5082 25.7642 63.7589 25.7721C69.3314 25.944 73.0931 27.795 77.0765 29.7571C78.8108 30.6112 80.6058 31.4944 82.641 32.2877C84.8663 33.155 87.258 32.8377 89.7895 32.5019C94.4037 31.8911 99.6331 31.1982 104.53 37.9069L104.823 38.3088C105.905 39.7923 106.576 40.7099 107.188 41.7518C110.168 39.6125 113.917 40.5592 116.673 41.2599C117.409 41.4477 118.103 41.6248 118.639 41.7015C119.194 41.7808 119.576 42.2938 119.497 42.8465C119.418 43.4018 118.903 43.7879 118.354 43.7059C117.707 43.6134 116.963 43.423 116.174 43.222C113.621 42.5715 110.445 41.7623 108.21 43.5023C105.654 45.4935 107.151 52.292 108.518 55.4917C108.738 56.0047 108.5 56.5997 107.988 56.8218C107.859 56.8773 107.724 56.9038 107.589 56.9038C107.196 56.9038 106.824 56.6737 106.66 56.2903C106.62 56.1951 103.149 47.7464 105.749 43.3172C105.092 42.1087 104.419 41.1859 103.191 39.5041L102.898 39.1021C98.7092 33.3613 94.5067 33.9193 90.0561 34.5089C87.382 34.8633 84.6182 35.2282 81.9072 34.1731C79.7928 33.3481 77.9581 32.4464 76.1842 31.5737C72.3619 29.691 69.0411 28.0647 64.1681 27.8214C64.9415 29.1489 65.6173 30.2727 66.1717 30.8333C68.4418 31.4891 70.5193 32.7848 71.9078 35.1039C72.1956 35.5852 72.0398 36.2066 71.562 36.4922C71.3984 36.59 71.2189 36.6376 71.042 36.6376C70.6988 36.6376 70.3636 36.4631 70.1735 36.1458C66.6732 30.3018 57.2071 32.613 54.8656 33.5491C54.3482 33.758 53.7596 33.5041 53.551 32.9858C53.3451 32.4675 53.5959 31.8778 54.1133 31.6689C55.8555 30.9708 59.5749 30.0268 63.3049 30.323C62.9644 29.7756 62.608 29.1621 62.2147 28.4905C58.6853 22.427 53.1392 12.9127 38.9665 13.3649C38.6391 13.6029 38.2194 13.6214 37.8762 13.4231C35.5902 13.5738 33.0957 13.9678 30.353 14.6738C16.328 18.2886 8.98687 26.4305 5.29914 32.6288C1.04124 39.795 -0.104413 47.2705 0.639995 51.1788C1.42664 55.3172 2.34263 58.3396 3.67042 61.0791C5.25955 57.705 6.5847 55.5234 6.68237 55.3595C6.97274 54.8835 7.59572 54.7328 8.07088 55.0263C8.54603 55.3198 8.6965 55.9412 8.40612 56.4172C8.23982 56.6869 -7.4825 82.8049 4.4993 95.5136C5.27803 91.563 6.90147 87.295 10.0903 83.6167C15.4965 77.3814 24.1311 74.3484 35.7671 74.5758V74.5784ZM23.1465 49.8857C23.3418 49.3621 23.9225 49.0951 24.4452 49.2881C34.2915 52.9399 42.546 47.6142 45.5341 44.285C45.9063 43.8699 46.5478 43.8355 46.9622 44.2083C47.3767 44.5812 47.411 45.2238 47.0388 45.6389C44.5178 48.4472 38.6127 52.5406 31.137 52.5406C28.8061 52.5406 26.3247 52.144 23.7457 51.1867C23.223 50.991 22.9538 50.4093 23.1491 49.8857H23.1465Z" fill="#EF3340"/>
<path d="M269.947 83.4452C269.764 83.5854 269.548 83.6515 269.334 83.6515C269.031 83.6515 268.727 83.514 268.529 83.2522C268.191 82.808 268.276 82.1733 268.722 81.8322C277.248 75.3245 280.772 66.4422 278.151 58.0729C273.246 42.4317 258.648 42.088 247.989 41.8367C246.952 41.8129 245.949 41.7865 244.988 41.7495C248.501 45.0417 251.936 50.444 254.594 59.1597C258.701 57.4647 265.443 57.269 268.284 61.3334C268.606 61.7908 268.492 62.4228 268.035 62.7428C267.859 62.8671 267.658 62.9253 267.457 62.9253C267.138 62.9253 266.824 62.7745 266.628 62.4942C264.43 59.3475 258.646 59.5775 255.161 61.1245C255.602 62.7243 256.019 64.414 256.407 66.2227C256.523 66.7701 256.175 67.3096 255.631 67.4259C255.56 67.4418 255.489 67.4497 255.417 67.4497C254.95 67.4497 254.533 67.1244 254.43 66.6485C249.122 41.8262 238.539 38.6662 232.726 38.9888C222.809 39.5388 220.23 44.6715 217.738 49.6322C216.766 51.5652 215.85 53.3898 214.533 54.8706C214.161 55.2884 213.522 55.3255 213.105 54.9526C212.688 54.5798 212.654 53.9398 213.023 53.522C214.163 52.2395 215.024 50.5313 215.932 48.7226C218.424 43.7592 221.526 37.582 232.615 36.9659C235.205 36.8231 238.623 37.2726 242.155 39.5335C243.829 39.7133 245.872 39.7636 248.039 39.8138C253.303 39.9381 259.9 40.0968 265.866 42.2863C265.871 42.0298 265.879 41.7601 265.887 41.4692C266.013 36.6988 266.277 26.772 260.116 20.4203C249.66 9.63941 237.808 5.6121 230.709 6.40275L223.17 7.24101C226.847 10.319 229.139 13.2965 231.889 19.6693C232.111 20.1823 231.874 20.7773 231.361 20.9994C231.229 21.055 231.095 21.0841 230.96 21.0841C230.57 21.0841 230.197 20.854 230.031 20.4732C227.069 13.6138 224.786 10.9986 220.333 7.55568L220.082 7.58477L219.741 7.25687C219.654 7.17225 210.552 -1.33455 197.269 2.30934C185.195 5.62003 180.808 9.93293 179.427 11.739C184.097 12.4186 190.952 13.8412 194.276 16.594C194.706 16.951 194.767 17.5883 194.41 18.0193C194.21 18.2626 193.922 18.3868 193.632 18.3868C193.405 18.3868 193.178 18.3102 192.987 18.1541C189.587 15.3406 182.571 14.1533 178.303 13.6323C177.46 13.8042 175.335 13.717 173.955 13.7778C168.847 14.0026 160.294 14.3807 152.32 22.3137C145.018 29.575 140.295 34.4088 136.705 39.7609C139.704 50.1294 139.987 61.5793 138.345 69.9671C142.265 73.5026 146.993 75.3457 157.018 72.9816C165.18 71.0566 174.34 65.0566 181.008 59.1254C180.053 59.3131 179.06 59.3924 178.06 59.3924C172.514 59.3924 166.78 56.9544 166.453 56.8116C165.941 56.5921 165.703 55.9945 165.925 55.4815C166.147 54.9685 166.743 54.7305 167.253 54.9526C167.356 54.9949 177.371 59.2523 182.872 56.3779C194.054 50.5392 193.621 40.4591 191.707 36.7543C191.451 36.2572 191.644 35.6464 192.14 35.3899C192.634 35.1334 193.246 35.3264 193.502 35.8235C194.273 37.3123 194.846 39.6869 194.738 42.4291C199.312 37.6428 207.02 32.2907 217.046 35.3211C217.579 35.4824 217.883 36.0483 217.722 36.5825C217.561 37.1193 216.996 37.4207 216.463 37.2594C205.843 34.0492 197.969 41.411 194.223 46.0835C194.21 46.0994 194.194 46.11 194.181 46.1258C193.243 49.6481 191.026 53.366 186.718 56.3991C179.963 63.6207 167.965 72.4819 157.48 74.9517C154.352 75.6894 151.602 76.0676 149.133 76.0676C144.633 76.0676 141.069 74.8089 137.841 72.1963C137.199 74.7004 136.37 76.8476 135.375 78.5003C141.594 82.3584 144.134 88.9613 145.989 95.2707C148.304 103.148 147.167 109.439 145.065 114.212C148.141 111.295 151.512 108.331 155.107 105.396C159.898 101.48 167.815 97.3623 180.037 97.0529C176.376 95.3474 172.931 93.3668 170.196 91.3597C170.191 91.3571 170.188 91.3544 170.185 91.3518C168.543 92.2588 166.698 92.7136 164.668 92.7136C162.747 92.7136 160.658 92.309 158.412 91.4946C157.887 91.3042 157.615 90.7251 157.805 90.1989C157.995 89.6726 158.57 89.3976 159.098 89.5907C163.156 91.0583 166.564 91.0503 169.235 89.5642C173.229 87.3403 174.306 82.4695 174.317 82.4192C174.433 81.8719 174.969 81.5228 175.515 81.6392C176.061 81.7555 176.41 82.2897 176.296 82.837C176.254 83.0407 175.333 87.2557 171.957 90.1222C175.615 92.7083 180.433 95.2337 185.319 97.0979C185.359 97.1138 185.396 97.1349 185.433 97.1534C187.536 97.2856 189.746 97.521 192.074 97.8806C194.429 98.2455 196.775 99.0097 199.069 100.144C199.146 100.118 199.223 100.094 199.304 100.086C210.698 98.777 211.276 90.1539 211.276 88.4377C211.276 87.8771 211.73 87.4249 212.287 87.4249C212.844 87.4249 213.298 87.8771 213.298 88.4377C213.298 89.7758 213.039 93.2319 210.655 96.4104C209.003 98.6131 206.698 100.192 203.813 101.157C214.472 102.194 222.822 100.988 224.261 100.509L225.071 100.242C226.824 99.6708 228.492 99.1261 231.462 97.5474C228.342 95.6567 226.549 92.5893 223.938 88.1204C223.36 87.1288 222.74 86.0658 222.048 84.9234C221.758 84.4448 221.911 83.8234 222.389 83.5325C222.867 83.2416 223.49 83.395 223.777 83.8736C224.472 85.0239 225.1 86.0975 225.683 87.0944C231.013 96.22 232.441 98.6766 249.745 97.7458C257.384 97.3359 259.704 90.302 259.726 90.2306C259.894 89.6964 260.462 89.4029 260.995 89.5721C261.526 89.7414 261.821 90.3099 261.653 90.8441C261.631 90.9102 259.913 96.1116 254.771 98.5496C261.135 103.867 262.851 114.22 263.574 121.711C263.735 123.39 263.767 125.093 263.69 126.796C265.346 125.651 267.344 123.811 271.42 114.424C276.562 102.585 276.879 92.8855 272.457 81.3271C271.673 82.049 270.836 82.7498 269.952 83.4267L269.947 83.4452Z" fill="#EF3340"/>
</g>
<defs>
<clipPath id="clip0_4395_24287">
<rect width="279" height="250" fill="white"/>
</clipPath>
</defs>
</svg>
