<svg width="339" height="203" viewBox="0 0 339 203" fill="none" xmlns="http://www.w3.org/2000/svg">
<g clip-path="url(#clip0_4395_24138)">
<path d="M232.8 156.939H159.828C148.642 156.939 139.574 148.065 139.574 137.121V38.4276C139.574 27.4837 148.642 18.6094 159.828 18.6094H318.746C329.932 18.6094 339 27.4837 339 38.4276V137.121C339 148.065 329.932 156.939 318.746 156.939H264.124" fill="#1C3663"/>
<path d="M270.991 156.078H263.529L279.761 202.999L232.42 156.078H224.775" fill="#1C3663"/>
<path d="M242.415 65.2827C235.912 58.1799 220.291 48.1135 207.848 61.3588C190.473 79.869 218.736 111.641 242.415 124.721C243.374 125.251 244.963 122.751 244.946 121.906C244.202 98.2965 242.415 65.2661 242.415 65.2661" fill="#E83340"/>
<path d="M242.414 65.2821C248.901 58.1793 265.696 48.1626 278.139 61.4244C295.53 79.9346 270.627 110.084 242.679 124.77" fill="#E83340"/>
<path d="M74.3957 120.184H153.689C163.287 120.184 171.064 112.469 171.064 102.965V17.2188C171.064 7.71536 163.287 0 153.689 0H17.3744C7.77713 0 0 7.71536 0 17.2188V102.982C0 112.485 7.77713 120.201 17.3744 120.201H46.8779" fill="#B5B8BF"/>
<path d="M40.7556 119.34H47.1593L39.498 151.84L73.8498 119.34H80.4024" fill="#B5B8BF"/>
<path d="M53.6947 80.8119C53.6947 83.908 51.1299 86.4246 47.9694 86.4246C44.8089 86.4246 42.2441 83.908 42.2441 80.8119C42.2441 77.7158 44.8089 75.1992 47.9694 75.1992C51.1299 75.1992 53.6947 77.7158 53.6947 80.8119Z" fill="#1C3663"/>
<path d="M92.515 80.8119C92.515 83.908 89.9502 86.4246 86.7897 86.4246C83.6292 86.4246 81.0645 83.908 81.0645 80.8119C81.0645 77.7158 83.6292 75.1992 86.7897 75.1992C89.9502 75.1992 92.515 77.7158 92.515 80.8119Z" fill="#1C3663"/>
<path d="M127.23 80.8119C127.23 83.908 124.665 86.4246 121.505 86.4246C118.344 86.4246 115.779 83.908 115.779 80.8119C115.779 77.7158 118.344 75.1992 121.505 75.1992C124.665 75.1992 127.23 77.7158 127.23 80.8119Z" fill="#1C3663"/>
</g>
<defs>
<clipPath id="clip0_4395_24138">
<rect width="339" height="203" fill="white"/>
</clipPath>
</defs>
</svg>
