<svg width="195" height="282" viewBox="0 0 195 282" fill="none" xmlns="http://www.w3.org/2000/svg">
<path d="M18.9709 260.702C18.9709 260.702 19.3215 262.37 11.6461 263.309C9.41977 263.576 4.32697 264.238 3.26388 265.305C3.04648 265.512 2.87779 265.764 2.76998 266.044C2.66217 266.323 2.61794 266.624 2.64049 266.922L21.1249 267.134C21.1249 267.134 22.6722 267.345 23.1787 265.327C23.6852 263.309 22.6722 258.851 22.1657 258.657C21.6592 258.462 18.9709 260.702 18.9709 260.702Z" fill="#002D66"/>
<path d="M44.1004 261.039C44.1004 261.039 43.26 263.09 45.4474 263.474C47.6348 263.857 52.9836 264.875 54.876 265.658C56.5458 266.348 56.056 267.131 56.056 267.131H37.6885C37.6885 267.131 36.3415 266.576 37.5215 263.724C38.7015 260.872 44.1004 261.039 44.1004 261.039Z" fill="#002D66"/>
<path d="M32.1005 134.488C29.44 151.454 31.3324 159.33 23.3119 219.671C21.9371 230.027 16.6328 262.202 16.6328 262.202H26.0615C26.0615 262.202 32.5402 218.843 34.8111 204.207C37.082 189.57 39.5254 177.725 41.5458 169.403C43.5663 161.081 44.7462 156.668 44.7462 156.668C44.7462 156.668 42.6423 187.308 40.3659 212.022C38.0894 236.737 37.338 263.464 37.338 263.464C37.338 263.464 45.6869 263.969 45.9206 263.464C46.1544 262.958 49.121 224.463 49.6275 207.064C50.134 189.665 57.8206 164.95 58.071 151.587C58.3215 138.224 52.9949 130.908 52.9949 130.908C52.9949 130.908 32.9187 129.268 32.1005 134.488Z" fill="#4B5F86"/>
<path d="M2.54119 60.8551C1.9846 59.9156 -0.0914878 58.0368 0.00313267 55.3352C0.0977532 52.6336 2.91967 52.3946 3.95493 52.5113C4.47922 52.5633 4.96153 52.8206 5.29635 53.2269C5.63118 53.6332 5.79126 54.1554 5.74159 54.6792C5.71992 54.9071 5.65772 55.1292 5.55791 55.3352C4.89557 57.0028 5.74159 56.1579 5.74159 56.1579C5.74159 56.1579 6.78241 56.5081 6.68779 57.2141C6.68462 57.7014 6.5629 58.1807 6.3331 58.6106C6.10331 59.0406 5.77234 59.4083 5.36867 59.6822C4.47588 60.1833 3.52676 60.577 2.54119 60.8551Z" fill="#A75154"/>
<path d="M51.2972 60.8183C50.3571 59.7114 49.5101 58.5289 48.7647 57.2829C47.7517 55.6875 47.5848 54.3423 48.3417 53.5863C49.0987 52.8303 50.4456 51.4017 52.4661 52.1577C54.4865 52.9137 54.9039 54.8315 54.6535 56.4769C54.5254 57.9224 54.5478 59.3773 54.7203 60.8183H51.2972Z" fill="#A75154"/>
<path d="M32.603 83.9803C32.269 85.748 34.206 93.3136 34.5399 96.5488C34.845 99.8046 34.9862 103.074 34.9629 106.343C34.8795 107.183 35.8034 107.516 37.8238 107.772C39.5434 107.947 41.2794 107.687 42.8721 107.016C43.7126 106.594 44.1189 106.254 43.54 105.165C42.421 102.891 41.5747 100.494 41.0186 98.0219C40.1782 94.4921 39.8442 93.2302 40.4342 92.641C41.0242 92.0517 42.1986 91.9684 42.6216 91.0456C43.0446 90.1228 42.7051 86.7542 42.2821 84.653C41.8591 82.5517 41.7812 80.9563 40.3452 80.3671C38.9092 79.7779 35.4639 78.9385 34.0334 80.3671C33.1429 81.3641 32.636 82.6447 32.603 83.9803Z" fill="#A75154"/>
<path d="M39.1247 79.9685C39.1247 79.9685 40.0264 82.5589 38.7907 84.5934C38.2228 85.431 37.3708 86.0351 36.3918 86.2944C36.3918 86.2944 36.62 93.482 34.7554 93.3708C34.6224 93.3644 34.4919 93.3318 34.3714 93.275C34.2509 93.2181 34.1429 93.1381 34.0534 93.0394C33.964 92.9408 33.8949 92.8255 33.8501 92.7002C33.8054 92.5749 33.7858 92.442 33.7925 92.3091C33.7925 92.3091 31.8612 85.0215 32.5513 82.659C33.2415 80.2965 34.2211 79.8796 35.3788 79.6072C36.9373 79.1903 39.1247 79.9685 39.1247 79.9685Z" fill="#221912"/>
<path d="M33.4027 82.3691C33.0854 80.7959 32.5121 79.0949 31.0149 79.0338C29.5177 78.9726 27.8813 79.0338 27.4694 81.8132C27.0576 84.5926 29.1114 86.9217 30.7533 87.372C32.3953 87.8223 33.5919 87.5888 33.6866 87.0551C33.7812 86.5215 33.4027 82.3691 33.4027 82.3691Z" fill="#221912"/>
<path d="M20.7584 131.591C15.9828 125.171 8.78608 98.9331 6.38717 89.5943C3.98827 80.2555 1.97897 70.183 1.83426 64.7631C1.71737 60.0493 1.61719 59.6212 1.61719 59.6212C2.41106 59.9252 3.26371 60.0449 4.11071 59.9714C4.91503 59.9107 5.68003 59.5996 6.29812 59.082C6.29812 59.082 12.3149 69.049 13.8288 75.4805C15.3427 81.9121 23.9309 100.712 28.7287 103.097C33.5266 105.481 35.0405 106.499 40.0888 106.249C45.137 105.998 48.0424 101.457 48.4376 96.5373C48.8328 91.6177 49.8291 79.0104 50.1074 72.5844C50.3857 66.1584 50.1074 59.5934 50.1074 59.5934C50.8257 60.0564 51.6904 60.2367 52.5341 60.0993C53.3098 59.9593 54.0602 59.7045 54.7605 59.3433C54.7605 59.3433 60.3264 85.9478 60.8218 96.7874C61.3171 107.627 61.6511 122.603 57.037 128.311C54.382 131.591 52.5174 133.353 47.3133 133.987C45.1704 134.243 30.3985 136.383 30.3985 136.383C28.8311 136.251 27.2954 135.866 25.8512 135.243C23.5413 134.237 20.7584 131.591 20.7584 131.591Z" fill="#002D66"/>
<path d="M144.587 264.903C143.233 265.987 141.681 266.799 140.017 267.293C137.696 267.849 134.824 267.354 133.689 268.716C133.394 269.22 133.266 269.803 133.321 270.384L152.451 270.078C152.451 270.078 153.442 267.249 152.24 264.769C151.038 262.29 144.587 264.903 144.587 264.903Z" fill="#221912"/>
<path d="M182.374 264.943C183.075 265.832 183.988 266.532 185.029 266.978C186.665 267.639 192.009 268.312 193.523 268.94C195.037 269.568 194.747 270.535 194.998 270.791C195.248 271.047 175.305 270.285 174.921 270.285C174.537 270.285 169.873 270.663 169.873 269.173C169.988 267.199 170.503 265.268 171.387 263.498C172.15 262.214 182.374 264.943 182.374 264.943Z" fill="#221912"/>
<path d="M175.935 136.007C175.935 136.007 179.469 142.31 180.86 152.127C182.252 161.944 182.753 189.321 181.74 203.696C180.727 218.071 180.07 245.827 181.239 253.726C182.408 261.625 184.395 264.621 185.135 265.399C185.875 266.177 185.764 266.789 182.48 266.789C179.196 266.789 173.897 267.295 169.985 266.283C166.072 265.271 165.944 264.393 166.088 260.863C166.233 257.333 166.973 239.806 168.231 226.187C169.489 212.568 171.643 199.961 171.643 191.639C171.643 183.318 171.515 159.365 171.515 159.365C171.515 159.365 165.471 172.567 162.298 184.652C159.126 196.737 157.25 208.355 156.999 216.17C156.749 223.986 157.294 238.111 156.493 250.079C155.736 261.391 157.122 265.571 156.365 266.961C155.608 268.351 150.56 267.856 148.289 267.478C146.018 267.1 142.984 266.466 142.984 266.088C142.984 265.71 143.992 250.079 144.248 237.344C144.504 224.609 144.877 200.884 145.511 197.804C146.146 194.724 156.242 164.718 157.879 154.128C159.515 143.539 159.398 137.608 159.02 136.729C158.641 135.851 175.935 136.007 175.935 136.007Z" fill="#863B8C"/>
<path d="M156.233 92.4369C156.921 91.3568 158.003 90.5872 159.25 90.2914C160.497 89.9955 161.811 90.1969 162.912 90.8526C165.978 92.6314 165.032 94.9661 165.032 97.5232C165.032 100.08 165.767 106.723 166.563 108.941C166.93 110.026 167.353 111.091 167.832 112.132C167.832 112.132 168.149 112.743 166.246 113.377C164.342 114.011 163.58 114.322 161.426 114.227C159.5 114.144 159.199 113.521 159.199 113.521C159.644 112.216 159.923 110.86 160.029 109.486C160.19 107.262 160.357 106.089 160.357 106.089C160.357 106.089 159.75 106.773 158.008 106.145C156.082 105.444 154.535 103.432 154.284 100.03C154.073 97.1674 154.646 94.9939 155.437 93.7265L156.233 92.4369Z" fill="#F7B697"/>
<path d="M178.714 68.8623C178.491 68.8776 178.277 68.9572 178.098 69.0914C177.919 69.2255 177.783 69.4085 177.706 69.6183C177.511 70.3131 178.018 71.4471 179.343 72.2031C180.667 72.9591 181.931 74.1598 182.755 74.1598C184.647 74.1598 186.155 74.5267 186.601 73.1981C187.046 71.8696 185.532 67.1613 182.877 66.4053C180.222 65.6493 178.842 65.4603 177.957 66.5943C177.072 67.7283 178.714 68.8623 178.714 68.8623Z" fill="#F7B697"/>
<path d="M183.004 73.4241C182.213 74.0244 182.091 75.0195 182.336 76.5315C182.581 78.0435 184.351 88.205 183.449 92.4185C182.547 96.6321 180.505 102.98 176.124 106.71C171.744 110.44 161.903 113.014 157.2 113.853C152.497 114.693 146.931 114.192 145.078 116.377C143.224 118.562 150.015 133.509 152.703 136.289C155.391 139.068 157.501 139.824 158.597 139.907C159.694 139.991 168.193 139.124 171.137 138.929C174.082 138.735 176.442 138.479 176.859 138.14C177.277 137.801 178.123 133.937 179.386 130.83C180.649 127.723 186.288 115.782 188.475 112.419C190.663 109.056 194.28 103.931 194.28 97.6271C194.28 91.3234 191.676 82.6628 189.655 78.7939C187.635 74.925 187.128 72.4902 185.948 72.9127C184.991 73.2018 184.002 73.3735 183.004 73.4241Z" fill="#A794AE"/>
<path d="M160.533 91.5241C158.042 92.2371 155.84 93.7152 154.238 95.7488C153.486 96.6883 154.093 92.2857 156.871 90.6458C159.648 89.006 162.542 89.2395 164.006 90.0121C166.232 91.1795 167.034 94.3425 166.054 98.1169C165.547 99.857 165.359 101.674 165.498 103.481C165.498 103.481 163.026 100.046 164.006 98.2725C164.885 96.666 165.77 94.2035 163.939 94.4258C163.038 94.537 163.026 96.5326 162.865 95.9378C162.482 94.2904 161.678 92.77 160.533 91.5241Z" fill="#D60040"/>
<path d="M166.41 148.209C168.915 150.155 171.364 154.54 171.419 158.915" stroke="#A272AB" stroke-width="0.81" stroke-linecap="round" stroke-linejoin="round"/>
<path d="M172.602 150.154C172.095 151.01 171.422 154.879 171.422 154.879" stroke="#A272AB" stroke-width="0.81" stroke-linecap="round" stroke-linejoin="round"/>
<path d="M171.76 194.803C172.817 199.172 177.031 212.958 180.226 217.16" stroke="#A272AB" stroke-width="0.81" stroke-linecap="round" stroke-linejoin="round"/>
<path d="M177.248 259.363C167.041 247.59 169.228 235.46 168.031 228.406" stroke="#A272AB" stroke-width="0.81" stroke-linecap="round" stroke-linejoin="round"/>
<path d="M168.916 263.114C187.467 267.005 179.63 258.55 177.265 253.336" stroke="#A272AB" stroke-width="0.81" stroke-linecap="round" stroke-linejoin="round"/>
<path d="M157.572 210.434C154.294 222.157 146.318 232.697 143.869 235.821" stroke="#A272AB" stroke-width="0.81" stroke-linecap="round" stroke-linejoin="round"/>
<path d="M143.719 253.119C146.897 249.272 155.062 223.385 157.121 215.48" stroke="#A272AB" stroke-width="0.81" stroke-linecap="round" stroke-linejoin="round"/>
<path d="M37.3376 80.4004C37.4434 81.6622 36.9146 84.3305 35.2949 85.1921" stroke="#B5B7BF" stroke-width="0.81" stroke-linecap="round" stroke-linejoin="round"/>
<path d="M26.9141 127.395C28.8065 130.419 34.2054 134.154 38.6414 134.999" stroke="#495E87" stroke-width="0.81" stroke-linecap="round" stroke-linejoin="round"/>
<path d="M53.8529 125.213C52.5951 128.998 51.532 132.94 48.4707 133.362" stroke="#495E87" stroke-width="0.81" stroke-linecap="round" stroke-linejoin="round"/>
<path d="M45.6484 133.865C46.5907 132.529 47.3402 131.068 47.8748 129.523" stroke="#495E87" stroke-width="0.81" stroke-linecap="round" stroke-linejoin="round"/>
<path d="M30.5586 134.529C32.3482 135.398 34.3468 135.745 36.3249 135.53" stroke="#495E87" stroke-width="0.81" stroke-linecap="round" stroke-linejoin="round"/>
<path d="M14.0781 78.1406C14.4566 80.5254 20.1338 108.392 15.1913 114.829" stroke="#495E87" stroke-width="0.81" stroke-linecap="round" stroke-linejoin="round"/>
<path d="M14.0791 83.9141C13.3221 87.2104 13.951 95.6876 9.28125 98.1946" stroke="#495E87" stroke-width="0.81" stroke-linecap="round" stroke-linejoin="round"/>
<path d="M48.8477 91.0527C49.4376 94.1434 48.4747 102.359 55.165 108.63" stroke="#495E87" stroke-width="0.81" stroke-linecap="round" stroke-linejoin="round"/>
<path d="M45.7246 151.638C46.7599 147.619 49.4983 146.285 50.695 144.617" stroke="#002D66" stroke-width="0.81" stroke-linecap="round" stroke-linejoin="round"/>
<path d="M41.2232 170.672C39.2417 173.979 31.7611 201.512 25.082 205.981" stroke="#002D66" stroke-width="0.81" stroke-linecap="round" stroke-linejoin="round"/>
<path d="M27.9922 205.98C29.662 204.741 32.2278 202.228 33.1518 198.971" stroke="#002D66" stroke-width="0.81" stroke-linecap="round" stroke-linejoin="round"/>
<path d="M42.1309 236.793C43.411 243.086 42.949 243.041 46.1328 255.026" stroke="#002D66" stroke-width="0.81" stroke-linecap="round" stroke-linejoin="round"/>
<path d="M40.6777 213.373C40.6777 219.877 42.4588 233.941 44.7742 241.028" stroke="#002D66" stroke-width="0.81" stroke-linecap="round" stroke-linejoin="round"/>
<path d="M45.1641 134.461C45.4925 135.878 45.8988 141.932 45.6483 146.724" stroke="#002D66" stroke-width="0.81" stroke-linecap="round" stroke-linejoin="round"/>
<path d="M42.7422 147.619C43.3867 147.909 43.9504 148.352 44.3841 148.909" stroke="#002D66" stroke-width="0.81" stroke-linecap="round" stroke-linejoin="round"/>
<path d="M142.939 90.1522C144.609 91.2251 146.562 92.826 146.306 89.7965C146.05 86.7669 143.779 82.7368 141.13 82.4032C138.481 82.0697 136.293 85.8942 136.26 88.4679C136.227 90.8638 141.258 89.096 142.939 90.1522Z" fill="#221912"/>
<path d="M115.817 78.1406C115.817 78.1406 120.637 82.8378 122.658 86.1175C124.678 89.3972 133.745 98.4914 135.871 100.659C137.997 102.827 141.932 105.201 139.155 106.774C136.378 108.347 134.107 107.78 131.329 105.262C128.684 102.743 125.809 100.476 122.741 98.4914C119.274 96.2679 110.29 91.1594 109.255 89.4806C108.22 87.8018 115.834 78.1406 115.834 78.1406" fill="#87C6C5"/>
<path d="M158.847 268.301C159.103 269.363 160.277 272.703 160.11 274.743C159.943 276.784 157.94 277.756 157.606 279.391C157.272 281.025 157.756 281.753 157.756 281.753C158.97 282.042 160.232 282.07 161.457 281.837C163.311 281.425 164.318 278.329 165.582 277.023C166.845 275.716 167.251 275.477 166.929 274.332C166.606 273.187 165.582 272.542 164.402 270.502C163.222 268.462 158.847 268.301 158.847 268.301Z" fill="#002D66"/>
<path d="M129.009 274.271C126.949 276.295 121.1 275.783 119.252 277.251C117.404 278.718 118.283 279.391 118.283 279.391H133.745C133.745 279.391 134.085 275.967 132.905 274.01C131.725 272.053 129.009 274.271 129.009 274.271Z" fill="#002D66"/>
<path d="M113.908 151.9C113.908 151.9 119.29 200.817 120.977 215.826C122.663 230.835 126.866 265.856 126.543 269.791C126.22 273.727 125.702 275.661 129.404 275.661C133.105 275.661 134.285 276.64 134.452 275.333C134.619 274.027 133.779 259.213 133.779 251.697C133.779 244.182 133.272 236.861 132.771 231.808C132.27 226.755 131.519 216.338 131.558 207.188C131.597 198.038 131.391 184.525 131.391 184.525C131.391 184.525 135.287 194.636 136.639 199.039C137.992 203.441 138.916 212.241 141.02 217.939C143.185 223.82 147.749 233.425 151.116 245.816C154.484 258.207 157.545 264.716 158.285 268.968C159.025 273.221 158.959 272.554 158.959 272.554C158.959 272.554 165.593 271.737 165.593 271.248C165.593 270.758 164.753 266.356 163.923 261.303C163.094 256.25 161.23 246.466 159.209 239.624C157.189 232.781 154.495 226.421 151.801 216.799C149.107 207.177 146.586 188.922 145.066 177.509C143.547 166.097 140.691 150.771 140.691 150.771L113.908 151.9Z" fill="#221912"/>
<path d="M105.994 106.489C109.695 104.187 117.777 103.854 123.499 103.854C129.221 103.854 138.649 102.336 144.037 107.884C149.425 113.432 155.481 118.479 156.661 122.176C157.841 125.872 159.354 141.342 158.848 145.378C158.341 149.414 159.521 155.94 157.674 156.807C155.826 157.674 152.62 158.658 148.245 155.462L143.87 152.271C143.87 152.271 144.544 157.83 144.544 160.337V162.861C144.544 162.861 140.837 163.533 131.074 161.349C121.311 159.164 120.304 159.331 117.104 157.819C113.903 156.307 112.729 155.801 112.729 155.801C112.729 155.801 106.501 135.289 105.994 130.414C105.494 126.562 104.763 122.744 103.807 118.979L105.994 106.489Z" fill="#00ABAB"/>
<path d="M141.136 105.082C142.95 105.598 144.637 106.484 146.09 107.684C147.665 109.068 148.316 109.657 148.522 110.724C148.645 111.402 148.917 112.614 148.311 112.737C148.155 112.77 147.91 112.514 147.921 112.598C148.005 113.07 147.576 113.876 147.365 113.654C145.906 112.192 145.244 111.569 145.205 111.525C145.166 111.48 146.318 113.415 146.374 113.609C146.452 114.11 145.817 114.488 144.888 113.165C144.604 112.77 143.942 112.425 142.812 111.102C141.891 109.94 140.91 108.827 139.873 107.767C139.205 107.211 141.136 105.082 141.136 105.082Z" fill="#F6A76D"/>
<path d="M143.029 111.92C143.029 111.92 143.697 108.029 144.036 105.027C144.376 102.025 145.044 96.2884 145.3 93.9092C145.556 91.53 146.057 88.1114 144.96 86.2603C143.864 84.4092 141.175 82.0578 139.661 82.647C138.147 83.2363 137.218 86.8162 136.8 89.0397C136.383 91.2632 135.364 93.9981 135.687 96.0994C136.01 98.2006 136.528 98.6231 136.528 98.6231C136.528 98.6231 134.858 102.247 133.672 103.759C132.916 104.733 132.225 105.754 131.602 106.817C131.602 106.817 131.229 107.111 131.897 108.373C132.565 109.635 135.971 111.275 138.314 111.831C140.658 112.387 141.097 112.42 142.016 112.42C142.934 112.42 143.029 111.92 143.029 111.92Z" fill="#F7B697"/>
<path d="M140.58 82.5792C140.58 82.5792 142.15 90.1503 143.825 89.0385C144.382 88.6661 145.222 89.1219 145.044 90.7061C144.927 91.7845 144.916 92.6684 143.992 93.3966C143.608 93.7023 144.487 98.1605 144.732 98.1605C144.977 98.1605 146.224 92.9741 147.237 91.879C148.25 90.784 148.517 87.004 146.33 84.9472C145.088 83.7236 143.556 82.8343 141.877 82.3624C140.925 82.0789 140.58 82.5792 140.58 82.5792Z" fill="#221912"/>
<path d="M140.631 82.9244C140.631 82.9244 136.924 86.9546 136.54 88.1831C135.983 89.9063 136.133 85.8428 137.274 84.2474C138.415 82.6521 140.241 82.0906 140.876 82.3964C141.51 82.7021 140.631 82.9244 140.631 82.9244Z" fill="#221912"/>
<path d="M61.065 276.894C59.1501 277.4 57.1946 277.738 55.2208 277.905C52.5325 278.061 49.5547 277.561 48.8757 278.272C48.1966 278.984 47.6178 280.535 51.1577 280.496C54.6976 280.457 60.1188 280.907 63.4751 280.668C66.8313 280.429 67.8443 280.368 67.6773 277.516C67.5103 274.665 61.065 276.894 61.065 276.894Z" fill="#221912"/>
<path d="M92.0502 276.839C92.0502 278.229 90.9871 281.631 92.9018 281.887C94.8164 282.142 107.824 281.887 107.824 281.887C107.824 281.887 111.436 281.77 109.421 279.747C108.865 279.191 105.269 279.224 102.28 279.041C99.2914 278.857 96.1022 278.568 95.1448 277.073C94.1875 275.578 92.0502 276.839 92.0502 276.839Z" fill="#221912"/>
<path d="M82.0933 158.151C81.5869 160.503 71.1508 222.706 69.1303 231.45C67.1099 240.194 64.0821 249.438 62.5681 255.492C61.0542 261.545 59.0282 272.974 58.3547 274.486C57.6813 275.998 58.0208 278.016 60.3752 278.183C62.7295 278.35 66.776 280.201 68.9634 278.016C71.1508 275.831 76.0321 260.028 77.546 253.474C79.0599 246.92 80.2176 234.474 81.2362 228.254C82.2548 222.033 89.1621 185.89 90.843 180.342C92.5239 174.795 95.1176 166.723 95.1176 166.723C95.1176 166.723 96.125 186.396 95.1176 198.164C94.1102 209.932 91.856 225.735 90.509 233.635C89.1621 241.534 88.9561 269.611 89.2233 274.653C89.4904 279.695 90.3365 280.212 93.3699 280.212C96.4033 280.212 98.7577 280.718 98.7577 278.366C98.7577 276.015 99.4312 256.509 101.112 243.062C102.793 229.616 104.646 216.664 105.32 209.604C105.993 202.544 106.667 189.592 107.34 182.538C108.014 175.484 109.528 160.686 108.353 154.466C107.179 148.246 82.0933 158.151 82.0933 158.151Z" fill="#77A6D4"/>
<path d="M78.8928 111.919C72.6645 112.425 58.3546 112.931 56.5067 112.931C54.6588 112.931 51.2858 112.259 49.271 116.266C47.2561 120.274 49.4435 122.82 51.6309 125.844C53.8183 128.868 54.3248 128.201 55.1653 130.892C56.7777 135.843 58.8614 140.629 61.388 145.183C63.0519 148.107 64.9114 150.915 66.9539 153.588C67.9613 154.934 69.0968 155.022 70.3213 155.106C71.5458 155.189 73.6608 154.6 76.377 153.761C79.0931 152.921 77.7239 153.088 77.7239 153.088C77.7239 153.088 77.8965 156.618 77.39 158.802C76.8835 160.987 76.5495 162.138 77.8965 162.694C79.2434 163.25 87.1526 163.7 91.8669 163.194C96.5812 162.688 104.802 160.192 108.353 158.152C111.904 156.112 114.581 133.104 113.919 126.044C113.257 118.985 114.019 113.771 111.225 111.919C108.81 110.324 104.49 110.407 99.1026 111.08C93.7148 111.753 78.8928 111.919 78.8928 111.919Z" fill="#E73440"/>
<path d="M72.6656 115.199C72.5375 114.571 72.1591 107.761 71.4021 101.958C70.6451 96.1546 69.0032 87.7107 70.0162 85.8374C71.0292 83.9641 74.9365 82.9357 77.4634 85.3316C79.9903 87.7274 81.7547 95.7988 79.9903 98.3225C79.9903 98.3225 79.1053 100.085 78.5988 100.34C78.0923 100.596 83.3855 110.991 84.1647 111.842L84.9273 112.692C84.9273 112.692 84.8048 114.082 81.7714 114.588C78.738 115.093 76.0886 115.844 74.3242 115.844C72.5598 115.844 72.6656 115.199 72.6656 115.199Z" fill="#F7B697"/>
<path d="M73.2939 87.9669C73.2718 89.0747 73.422 90.1792 73.7392 91.241C73.8733 91.4681 73.9117 91.7391 73.846 91.9944C73.7802 92.2498 73.6157 92.4686 73.3885 92.6029H73.3496C73.0327 91.886 72.502 91.2843 71.8301 90.8797C70.5722 89.9958 70.0657 91.8191 71.0731 93.2589C72.0805 94.6986 72.6594 96.0661 72.1195 97.5669C71.8471 98.392 71.4327 99.1632 70.895 99.8461C70.895 99.8461 69.3087 90.2682 68.4683 87.0219C67.6278 83.7755 72.587 83.7366 74.1065 83.6866C75.626 83.6366 77.0509 83.6032 78.0027 83.0195C78.9544 82.4359 79.0156 85.004 78.1696 85.3431C77.3236 85.6822 72.7039 84.7872 72.1974 85.4654C71.6909 86.1436 73.8672 85.6377 73.9618 86.3104C74.0564 86.983 73.2939 87.9669 73.2939 87.9669Z" fill="#002D66"/>
<path d="M69.1304 6.05677C66.4254 4.82828 60.7815 3.87216 58.9838 9.17527C56.4513 16.5796 68.3345 22.1718 76.5887 22.9945C76.9227 23.0278 77.0507 22.1217 76.9394 21.8827C73.7724 15.2455 69.1304 6.05677 69.1304 6.05677Z" fill="#E73440"/>
<path d="M69.0352 6.21307C69.9535 3.38919 73.4879 -1.69156 78.6252 0.559759C85.7997 3.70049 82.6271 15.3517 76.666 22.9618" fill="#E73440"/>
<path d="M101.914 45.5145C101.914 45.5145 106.194 45.8702 108.287 51.1122C110.38 56.3542 112.74 63.1415 116.58 65.3761C120.421 67.6107 119.78 70.1067 118.573 71.3907C117.365 72.6748 110.035 75.0873 104.452 74.2313C98.8694 73.3752 94.9899 71.3907 94.656 67.4384C94.322 63.4861 97.4389 63.3583 96.8823 59.1669C96.3257 54.9756 96.0085 49.0499 97.1439 47.3322C98.2794 45.6145 99.2367 45.6145 100.194 45.5256C100.766 45.4746 101.341 45.4709 101.914 45.5145Z" fill="#D60040"/>
<path d="M81.5026 182.021C81.163 182.311 79.4766 183.161 79.6046 184.012C79.7326 184.862 86.4673 199.837 86.7178 200.477C86.9683 201.116 87.5638 202.183 87.831 202.111C88.1211 201.921 88.3531 201.656 88.5014 201.343C88.6497 201.03 88.7085 200.682 88.6714 200.338C88.5045 199.482 87.4915 193.734 86.9071 190.827C86.3226 187.919 84.1575 182.594 84.1575 182.594L81.5026 182.021Z" fill="#002D66"/>
<path d="M106.583 148.908C106.416 149.242 104.228 151.51 104.139 152.438C104.05 153.366 117.046 164.879 117.046 164.879C117.046 164.879 119.15 166.546 119.49 165.99C119.829 165.435 118.377 162.544 116.29 160.432C114.202 158.319 110.651 153.038 110.651 151.777C110.63 150.819 110.544 149.865 110.395 148.919L106.583 148.908Z" fill="#002D66"/>
<path d="M91.4777 87.9688C91.4777 87.9688 89.9637 96.0346 88.4442 100.576C86.9248 105.118 84.9099 108.014 85.2884 109.782C85.6669 111.549 90.4647 117.347 93.3701 123.017C96.2755 128.687 101.324 134.868 101.073 136.886C100.823 138.904 97.9119 142.94 92.1066 153.907C86.3014 164.875 79.4831 180.134 79.6112 181.646C79.7392 183.158 81.1251 185.053 83.1455 185.682C85.1659 186.31 85.4164 186.437 86.4238 184.42C87.4312 182.402 97.7894 165.753 101.196 160.595C104.602 155.436 109.149 149.477 111.298 147.226C113.446 144.974 115.083 144.58 115.339 141.934C115.595 139.288 111.799 130.816 109.021 123.273C106.244 115.729 104.48 111.544 104.48 111.544C104.48 111.544 112.94 115.329 116.975 116.591C121.01 117.853 127.328 118.603 127.834 119.615C128.341 120.627 127.205 122.011 126.448 122.517C123.703 124.773 121.244 127.355 119.124 130.205C116.597 133.734 106.751 150.255 106.751 150.255C106.751 150.255 108.264 151.367 110.034 152.523C111.804 153.679 111.704 152.273 113.062 150.755C114.42 149.238 128.847 134.868 133.139 130.46C137.43 126.052 141.593 123.017 141.092 120.621C140.591 118.225 132.126 111.421 124.172 106.502C116.218 101.582 104.135 95.0284 104.135 95.0284L105.86 89.8587L91.4777 87.9688Z" fill="#AD1A25"/>
<path d="M99.2873 66.9262C99.2873 66.9262 99.3931 62.5681 99.1148 59.5886C98.8365 56.6091 97.6621 56.3589 97.6621 53.1626C97.6621 49.9663 98.5025 46.5254 101.786 46.5254C105.07 46.5254 105.994 50.0552 106.668 52.1565C107.341 54.2577 107.703 57.6263 105.66 59.5886C104.731 60.478 107.419 72.9631 107.419 72.9631C106.739 73.2463 106.008 73.3885 105.272 73.3808C104.535 73.3732 103.807 73.2159 103.133 72.9186C100.779 71.9125 99.6658 70.3949 99.2985 69.0274C99.0637 68.3473 99.0598 67.6088 99.2873 66.9262Z" fill="#F7B697"/>
<path d="M76.6216 19.877C75.1911 20.0493 73.0872 21.728 72.4972 24.2517C71.9072 26.7754 72.2412 30.0496 73.5046 31.645C74.8072 33.4841 75.9081 35.4577 76.7885 37.5317C77.2561 38.688 79.0594 38.0154 79.9889 36.8591C80.9184 35.7029 80.8127 35.8085 79.9889 33.6239C79.1652 31.4393 77.5622 25.8416 77.6457 24.2517C77.7292 22.6619 76.6216 19.877 76.6216 19.877Z" fill="#F7B697"/>
<path d="M76.6211 37.6146C77.2111 38.6207 81.4634 51.9063 83.5451 60.3112C85.6267 68.7161 86.9904 81.8127 86.4672 85.3592C85.944 88.9057 85.2872 90.2343 85.2872 90.2343C85.2872 90.2343 92.022 93.6474 97.2428 94.7147C102.464 95.782 106.744 97.1105 107.417 96.7325C108.776 95.7853 109.995 94.6533 111.041 93.3695L112.221 91.913C112.221 91.913 118.955 92.758 120.302 90.9069C121.649 89.0558 118.51 80.4341 115.816 78.1216C113.122 75.8092 109.176 74.2638 104.562 71.1342C102.247 69.5666 97.3263 65.8978 93.8754 60.4613C91.4932 56.7091 86.8234 49.8996 85.0757 45.219C82.4876 38.3261 80.5729 35.0742 80.5729 35.0742C80.127 35.7307 79.5604 36.2966 78.9031 36.7419C78.2424 37.2461 77.45 37.5491 76.6211 37.6146Z" fill="#87C6C5"/>
<path d="M77.13 19.3496L80.7312 26.1703L82.9575 25.8757L84.3713 29.0219C84.3713 29.0219 84.7164 30.1337 82.323 31.9014C80.6199 33.1633 77.8258 32.9798 77.8258 32.9798L76.028 29.6056C76.4951 29.0606 76.9931 28.5427 77.5196 28.0547L73.2617 20.6003L77.13 19.3496Z" fill="#E73440"/>
<path d="M76.6211 19.8768C76.6211 19.8768 78.3521 19.5822 78.5191 20.3382C78.5731 20.5249 78.5857 20.7211 78.5559 20.9132C78.5261 21.1052 78.4546 21.2884 78.3465 21.45C78.6206 21.5062 78.8722 21.6415 79.0701 21.8392C79.2679 22.0368 79.4034 22.288 79.4597 22.5617C79.5642 23.2949 79.4001 24.041 78.9978 24.663C78.9978 24.663 80.1777 25.041 79.9662 25.9248C79.7547 26.8087 77.7733 27.3868 77.1833 28.2762C75.9087 30.2329 75.7974 31.2168 74.3669 30.2107C72.9365 29.2045 72.5636 26.3195 72.6972 24.8242C72.8307 23.3289 73.1925 21.7724 74.7565 20.7162C76.3206 19.66 76.6211 19.8768 76.6211 19.8768Z" fill="#F7B697"/>
<path d="M95.9805 138.402C96.9879 137.39 98.5742 136.801 98.6243 134.866C98.6744 132.932 98.7579 129.574 99.7653 128.752C100.773 127.929 105.743 126.311 107.001 126.984C108.259 127.657 107.585 128.507 107.585 128.507C107.585 128.507 109.255 128.507 109.522 129.263C109.79 130.019 108.409 130.442 108.409 130.442C108.409 130.442 109.394 130.608 109.45 131.281C109.464 131.474 109.417 131.667 109.318 131.833C109.218 131.999 109.07 132.13 108.893 132.209C108.988 132.205 109.083 132.223 109.17 132.261C109.257 132.3 109.334 132.358 109.395 132.431C109.455 132.505 109.498 132.591 109.519 132.684C109.54 132.777 109.539 132.873 109.517 132.965C109.4 133.721 106.177 133.805 104.858 134.983C103.539 136.162 103.511 139.097 100.478 140.108C99.6458 140.381 98.7453 140.361 97.9267 140.05C97.1081 139.739 96.4211 139.157 95.9805 138.402Z" fill="#F6A76D"/>
<path d="M124.384 123.898C124.384 123.898 123.415 123.52 124.289 122.847C125.046 122.264 128.742 121.502 130.15 122.514C131.558 123.526 132.338 126.21 132.505 127.973C132.672 129.735 134.859 131.508 134.859 131.508L131.659 137.028C131.659 137.028 129.343 135.077 128.419 134.321C127.495 133.565 126.427 132.425 126.594 131.247C126.761 130.068 123.811 129.112 122.781 129.279C121.751 129.446 120.187 129.246 120.171 128.823C120.143 128.1 121.056 127.711 122.653 127.711C124.25 127.711 123.716 127.155 123.716 127.155C123.053 126.956 122.348 126.933 121.673 127.089C120.683 127.317 120.889 125.21 122.486 124.626L124.384 123.898Z" fill="#F7B697"/>
<path d="M101.786 46.5274C100.794 47.2063 99.9861 48.1202 99.4344 49.1872C98.8827 50.2543 98.6044 51.4413 98.6245 52.6421C98.6245 57.3115 97.0716 57.4838 97.0716 57.4838C97.0716 57.4838 96.2924 49.8016 97.6282 47.7115C98.964 45.6213 101.786 46.5274 101.786 46.5274Z" fill="#D60040"/>
<path d="M100.439 46.3438C97.6557 46.6272 96.4256 50.2349 97.8727 55.1934C99.1529 59.5904 98.6241 60.8189 98.6241 60.8189" stroke="#AD1A25" stroke-width="0.81" stroke-linecap="round" stroke-linejoin="round"/>
<path d="M111.676 65.9492C112.182 66.6552 115.077 70.0016 117.242 69.996" stroke="#AD1A25" stroke-width="0.81" stroke-linecap="round" stroke-linejoin="round"/>
<path d="M87.7476 50.6855C90.0853 57.5118 90.2968 67.9179 86.4062 79.2856" stroke="#00ABAB" stroke-width="0.81" stroke-linecap="round" stroke-linejoin="round"/>
<path d="M91.373 63.8926C92.2688 66.7511 92.3305 69.8054 91.5512 72.6977" stroke="#00ABAB" stroke-width="0.81" stroke-linecap="round" stroke-linejoin="round"/>
<path d="M115.338 81.4062C115.338 82.7848 115.617 84.786 115.272 86.9261C115.049 88.4498 114.465 89.8983 113.568 91.1508" stroke="#00ABAB" stroke-width="0.81" stroke-linecap="round" stroke-linejoin="round"/>
<path d="M116.094 86.9551C116.841 91.2912 119.027 95.2502 122.3 98.195" stroke="#00ABAB" stroke-width="0.81" stroke-linecap="round" stroke-linejoin="round"/>
<path d="M97.6621 90.1511C100.035 88.7947 102.762 88.1826 105.488 88.3946" stroke="#00ABAB" stroke-width="0.81" stroke-linecap="round" stroke-linejoin="round"/>
<path d="M105.487 102.191C103.85 104.732 102.977 107.834 104.479 111.541" stroke="#E73440" stroke-width="0.81" stroke-linecap="round" stroke-linejoin="round"/>
<path d="M105.486 104.354C106.121 103.348 108.236 102.303 109.138 102.191" stroke="#E73440" stroke-width="0.81" stroke-linecap="round" stroke-linejoin="round"/>
<path d="M110.368 146.723C108.198 147.834 99.1365 151.781 92.9082 152.404" stroke="#E73440" stroke-width="0.81" stroke-linecap="round" stroke-linejoin="round"/>
<path d="M109.136 149.564C108.023 151.154 96.6128 159.782 88.6758 160.626" stroke="#E73440" stroke-width="0.81" stroke-linecap="round" stroke-linejoin="round"/>
<path d="M83.4164 174.463C83.1437 178.493 83.1493 181.595 84.9081 182.801" stroke="#E73440" stroke-width="0.81" stroke-linecap="round" stroke-linejoin="round"/>
<path d="M124.5 129.523C123.543 130.958 121.895 136.25 121.395 139.529" stroke="#E73440" stroke-width="0.81" stroke-linecap="round" stroke-linejoin="round"/>
<path d="M125.35 130.73C124.621 133.577 124.537 135.211 125.539 137.051" stroke="#E73440" stroke-width="0.81" stroke-linecap="round" stroke-linejoin="round"/>
<path d="M102.488 96.4492C102.745 98.6414 102.883 100.846 102.9 103.053" stroke="#E73440" stroke-width="0.81" stroke-linecap="round" stroke-linejoin="round"/>
<path d="M100.043 105.311C100.929 105.973 101.723 106.75 102.403 107.623" stroke="#E73440" stroke-width="0.81" stroke-linecap="round" stroke-linejoin="round"/>
<path d="M64.7559 124.26C67.2772 126.561 67.7781 126.861 68.3681 128.946C68.9581 131.03 71.9915 140.981 74.5185 141.698C77.0454 142.415 89.5464 140.308 92.886 138.485" stroke="#AD1A25" stroke-width="0.81" stroke-linecap="round" stroke-linejoin="round"/>
<path d="M67.7164 121.17C66.5308 122.476 67.7164 125.834 67.7164 125.834" stroke="#AD1A25" stroke-width="0.81" stroke-linecap="round" stroke-linejoin="round"/>
<path d="M77.7129 153.111C79.3827 152.272 95.5572 145.885 98.624 142.127" stroke="#AD1A25" stroke-width="0.81" stroke-linecap="round" stroke-linejoin="round"/>
<path d="M84.0966 195.014C82.4658 198.377 75.1911 205.853 72.2523 214.881C68.7903 225.398 76.2097 240.618 77.7125 252.714" stroke="#0078C1" stroke-width="0.81" stroke-linecap="round" stroke-linejoin="round"/>
<path d="M69.9922 227.221C70.6434 229.094 74.4449 258.117 72.302 270.841" stroke="#0078C1" stroke-width="0.81" stroke-linecap="round" stroke-linejoin="round"/>
<path d="M59.873 273.204C62.3944 274.488 66.7636 272.304 67.6932 265.244" stroke="#0078C1" stroke-width="0.81" stroke-linecap="round" stroke-linejoin="round"/>
<path d="M100.731 246.355C100.008 254.271 96.3955 270.87 89.5605 276.996" stroke="#0078C1" stroke-width="0.81" stroke-linecap="round" stroke-linejoin="round"/>
<path d="M92.7421 267.139C92.1076 269.023 90.3487 270.541 89.1465 271.547" stroke="#87C6C5" stroke-width="0.81" stroke-linecap="round" stroke-linejoin="round"/>
<path d="M134.859 131.51C136.457 133.272 148.913 139.67 151.941 143.111" stroke="#87C6C5" stroke-width="0.81" stroke-linecap="round" stroke-linejoin="round"/>
<path d="M144.732 124.26C145.89 126.884 147.721 134.366 147.393 139.535" stroke="#87C6C5" stroke-width="0.81" stroke-linecap="round" stroke-linejoin="round"/>
<path d="M131.518 138.314C133.438 140.505 139.666 147.898 143.874 152.273" stroke="#87C6C5" stroke-width="0.81" stroke-linecap="round" stroke-linejoin="round"/>
<path d="M130.761 145.895C127.422 151.781 126.865 153.121 117.23 155.094" stroke="#87C6C5" stroke-width="0.81" stroke-linecap="round" stroke-linejoin="round"/>
<path d="M122.947 156.475H127.517" stroke="#87C6C5" stroke-width="0.81" stroke-linecap="round" stroke-linejoin="round"/>
<path d="M122.947 170.26C125.018 172.945 129.504 180.888 130.74 183.54" stroke="#0078C1" stroke-width="0.81" stroke-linecap="round" stroke-linejoin="round"/>
<path d="M122.947 175.807C124.511 176.813 124.06 176.646 125.541 177.991" stroke="#0078C1" stroke-width="0.81" stroke-linecap="round" stroke-linejoin="round"/>
<path d="M122.947 233.041C125.174 236.493 133.278 257.038 133.812 263.709" stroke="#0078C1" stroke-width="0.81" stroke-linecap="round" stroke-linejoin="round"/>
<path d="M183.595 99.7422C182.921 102.522 178.207 117.975 182.587 123.69" stroke="#863B8C" stroke-width="0.81" stroke-linecap="round" stroke-linejoin="round"/>
<path d="M185.508 112.427C190.306 109.547 192.265 106.39 192.938 104.355" stroke="#863B8C" stroke-width="0.81" stroke-linecap="round" stroke-linejoin="round"/>
<path d="M157.572 126.807C159.693 128.902 164.741 133.85 165.582 135.995" stroke="#863B8C" stroke-width="0.81" stroke-linecap="round" stroke-linejoin="round"/>
<path d="M74.6855 1.47163C75.949 1.34378 78.437 1.09363 79.8451 3.23377C80.4709 4.21339 80.8874 5.31153 81.0684 6.45938C81.2494 7.60723 81.1911 8.78005 80.8971 9.90434" stroke="#F6A76D" stroke-width="0.81" stroke-linecap="round" stroke-linejoin="round"/>
<path d="M73.2832 3.73968C74.4353 3.48954 75.081 2.85583 75.8936 3.73968" stroke="#F6A76D" stroke-width="0.81" stroke-linecap="round" stroke-linejoin="round"/>
<path d="M62.5605 17.2656C64.5917 18.6433 66.7612 19.8058 69.0337 20.7343" stroke="#F6A76D" stroke-width="0.81" stroke-linecap="round" stroke-linejoin="round"/>
<path d="M78.3535 28.3258C79.3554 27.5698 80.7023 26.7638 82.0103 26.6582" stroke="#F6A76D" stroke-width="0.81" stroke-linecap="round" stroke-linejoin="round"/>
<path d="M78.8418 31.7355C79.1034 31.024 80.5116 30.0679 82.0088 29.5898" stroke="#F6A76D" stroke-width="0.81" stroke-linecap="round" stroke-linejoin="round"/>
</svg>
